/* XPM */
static char *_7344dcfc77b45b3cba7006cecfe5389pmajiYB40pPD7tgX[] = {
/* columns rows colors chars-per-pixel */
"64 64 194 2 ",
"   c None",
".  c #1F160C",
"X  c #161616",
"o  c #1A1615",
"O  c #161816",
"+  c #1B1916",
"@  c #16171A",
"#  c #19161A",
"$  c #15191B",
"%  c #1A1A1B",
"&  c #231A0F",
"*  c #28170E",
"=  c #221612",
"-  c #221913",
";  c #2B1D13",
":  c #211519",
">  c #221C1C",
",  c #2C1818",
"<  c #361A19",
"1  c #1F2119",
"2  c #38200D",
"3  c #2D2115",
"4  c #26221B",
"5  c #2C251F",
"6  c #352A1B",
"7  c #3C2A1C",
"8  c #37271A",
"9  c #3F3318",
"0  c #0E1B23",
"q  c #0E1E29",
"w  c #1D1621",
"e  c #131B22",
"r  c #1C1D22",
"t  c #121D2B",
"y  c #161622",
"u  c #211E21",
"i  c #231F33",
"p  c #0E222B",
"a  c #132023",
"s  c #1D2124",
"d  c #14212B",
"f  c #1B2229",
"g  c #0C2332",
"h  c #122333",
"j  c #1A2933",
"k  c #232323",
"l  c #2A2324",
"z  c #2E2926",
"x  c #24262B",
"c  c #2C262A",
"v  c #262A2D",
"b  c #2B2B2D",
"n  c #332C2B",
"m  c #382724",
"M  c #38352D",
"N  c #2C2E34",
"B  c #2C2E39",
"V  c #262D32",
"C  c #312E34",
"Z  c #2E3135",
"A  c #2F333B",
"S  c #323234",
"D  c #3B3634",
"F  c #3C3834",
"G  c #31333A",
"H  c #353A3D",
"J  c #3B3C3D",
"K  c #411E1B",
"L  c #402C1C",
"P  c #482B18",
"I  c #47380F",
"U  c #433523",
"Y  c #403B37",
"T  c #433D3B",
"R  c #453A31",
"E  c #503E30",
"W  c #612D2E",
"Q  c #7C3231",
"!  c #554218",
"~  c #66431F",
"^  c #4B453F",
"/  c #54493A",
"(  c #5E4929",
")  c #6C4C29",
"_  c #79552F",
"`  c #614D3A",
"'  c #6D5438",
"]  c #795633",
"[  c #323741",
"{  c #363A43",
"}  c #3A3D44",
"|  c #3B3E49",
" . c #423E42",
".. c #413F4F",
"X. c #3C4144",
"o. c #3E414C",
"O. c #3E4451",
"+. c #3F4A51",
"@. c #444344",
"#. c #4D4844",
"$. c #42444E",
"%. c #4A444B",
"&. c #45484B",
"*. c #4A4A4B",
"=. c #524643",
"-. c #534B46",
";. c #584C47",
":. c #584947",
">. c #434551",
",. c #464A55",
"<. c #4A4A57",
"1. c #454B59",
"2. c #494A58",
"3. c #484756",
"4. c #524D58",
"5. c #4E5259",
"6. c #555356",
"7. c #5A5553",
"8. c #52525E",
"9. c #595559",
"0. c #54595D",
"q. c #7C674B",
"w. c #69625D",
"e. c #7C6A56",
"r. c #4F5261",
"t. c #535A64",
"y. c #5B5A62",
"u. c #555865",
"i. c #635E69",
"p. c #5D636C",
"a. c #566265",
"s. c #646365",
"d. c #64656C",
"f. c #656672",
"g. c #6B6771",
"h. c #656A74",
"j. c #6C6C75",
"k. c #686B79",
"l. c #716D76",
"z. c #65727A",
"x. c #6E717D",
"c. c #687676",
"v. c #75737C",
"b. c #77777A",
"n. c #78736D",
"m. c #843234",
"M. c #845B31",
"N. c #845F39",
"B. c #8B6837",
"V. c #937737",
"C. c #A27D2E",
"Z. c #826D55",
"A. c #9E6E6F",
"S. c #8E7E66",
"D. c #826C72",
"F. c #B58A31",
"G. c #CB992C",
"H. c #D6A933",
"J. c #998666",
"K. c #A58F7A",
"L. c #A79677",
"P. c #BD9F79",
"I. c #BCA77F",
"U. c #C5AA7F",
"Y. c #777682",
"T. c #7C7D80",
"R. c #7D8C93",
"E. c #7E8A89",
"W. c #858787",
"Q. c #9C9189",
"!. c #87969D",
"~. c #97989A",
"^. c #949696",
"/. c #968E88",
"(. c #899AA5",
"). c #869DA9",
"_. c #899DA9",
"`. c #869DA1",
"'. c #90A3A9",
"]. c #B0B1B6",
"[. c #B5B9BC",
"{. c #D0BA8A",
"}. c #D7BE90",
"|. c #CEB586",
" X c #DCC198",
".X c #F1CE97",
"XX c #E7D3A0",
"oX c #F6D8A3",
"OX c #BABCC1",
"+X c #BEC9D7",
"@X c #C9CDD3",
"#X c #D8D9DA",
"$X c #E9E9EA",
"%X c #FFFFFF",
/* pixels */
"                                                              h d t t h j                                                       ",
"                                                      g t 0 @ + > > r % y $ y d h                                               ",
"                                                    e o 4  .y.d.j.l.l.g.i.4.D u o $ t                                           ",
"                                                h @ z 7.v.Y.b.v.j.f.f.g.j.v.v.j.0.S + $ d                                       ",
"                                      g e @ $ @ o D l.Y.j.y.8.<.3.<.3.3.<.<.8.i.j.T.d.C o $                                     ",
"                                    e # n  .T  .@.c.f.8.3.2.>.<.<.2.2.2.<.3.2.3.2.r.f.v.9.k e e                                 ",
"                                h y u 6.v.x.x.k.h.u.1.$.} 2.2.2.2.2.1.2.1.2.2.2.,.2.<.8.k.k.b o p                               ",
"                              t # J l.j.r.2.<.3.>...{ [ >.>.2.,.1.2.2.1.2.2.<.<.<.2.,.<.<.0.f.} $ e                             ",
"                            t + @.v.h.2.2.o.} [ G G [ $.<.2.2.<.<.2.2.<.2.2.2.<.<.<.2.3.<.,.r.d.S o                             ",
"                          t w %.v.s.<.1.2.2.,.$.>.>.<.3.4.<.<.<.<.<.<.<.<.<.2.<.<.<.<.<.,.,.,.<.9.N e                           ",
"                        g X %.v.t.<.<.2.<.<.<.,.<.<.<.<.3.<.<.<.<.2.<.<.<.<.<.<.<.<.<.>.H v N S  .,.> $                         ",
"                        $ b v.p.1.1.<.2.<.<.2.<.<.2.<.<.<.<.<.<.<.<.<.<.<.4.<.<.<.<.<.<.<.$.x # # y + X d                       ",
"                      q > d.i.<.2.2.2.<.<.<.<.<.<.<.<.<.<.<.2.<.<.<.<.<.<.<.<.<.<.<.<.2.2.<.3.S + $ + o X                       ",
"                      $ @.x.<.<.<.<.<.<.<.<.<.<.<.<.<.<.<.<.<.<.<.<.<.<.<.<.<.<.<.<.<.<.<.2.<.<.G e X + $ a                     ",
"                    t u g.r.<.<.<.<.<.<.<.<.<.<.<.<.<.<.4.3.<.<.<.<.<.<.<.<.<.<.<.<.<.<.<.<.<.2.2.[ @ 0                         ",
"                    #  .p.2.<.<.<.<.<.<.4.<.<.<.<.<.<.<.<.<.2.<.<.<.<.<.<.<.<.<.<.<.<.<.2.<.<.<.1.,.z @                         ",
"                  d > i.<.<.<.<.<.<.<.<.<.<.<.<.<.2.4.<.<.<.<.<.<.<.<.<.<.<.<.<.<.<.<.<.<.<.<.<.,.1.$.> $                       ",
"                  e b y.&.<.<.<.<.<.<.<.<.<.<.<.<.<.<.<.<.<.<.<.<.<.<.<.<.<.<.<.<.2.<.<.<.<.<.<.<.1.1.Z $                       ",
"                  + } <.<.1.<.<.<.<.<.<.<.<.<.<.<.<.<.2.<.<.<.<.<.<.<.<.<.<.<.<.<.4.<.<.<.<.2.<.<.1.1.$.y a                     ",
"                  o &.<.1.,.<.<.<.<.<.<.<.<.<.<.<.<.<.<.<.<.2.<.<.4.<.<.<.<.<.<.<.<.<.<.<.<.<.<.<.2.,.,.v $                     ",
"                d o $.%.A <.<.2.<.<.<.2.<.<.<.4.2.4.2.2.<.<.<.<.<.<.<.<.<.2.<.<.<.<.<.<.<.<.<.2.<.>.>.,.{ @                     ",
"                d @ o.l Z <.<.2.<.<.<.<.<.<.<.<.<.<.2.2.<.<.<.<.<.<.<.<.<.<.<.<.<.<.<.<.<.<.<.2.2.>.x >.$.$ p                   ",
"                f o B o [ 2.2.,.2.<.<.<.<.2.<.<.<.<.<.<.<.<.<.<.<.<.<.<.<.<.<.2.<.<.<.<.2.2.2.2.2.,.s v %.% a                   ",
"                d o @ o G 2.O.| ,.<.<.<.3.2.3.<.<.<.<.<.<.<.<.<.<.<.<.<.<.<.<.<.<.<.<.2.,.,.2.1.2.} x # C > e                   ",
"                  o $ o N >.o.[ O.1.2.,.>.1.2.<.<.2.<.<.2.<.<.<.<.<.<.<.<.<.2.>.2.<.<.,.o.o.,.,.$.G b @ r + t                   ",
"                  O $ o V [ [ A [ o.,.,.G o.,.<.2.,.<.3.2.2.<.<.<.<.<.<.<.<.>.{ ,.,.,.o.[ X.,.>.G G Z # # o e                   ",
"                  $ $ X V A G A A [ $.o.A A { >.,.2.,.{ | 2.<.<.<.2.<.<.2.o.G A >.,.} G A { } G G G G # + o e                   ",
"                  g   . V G A A A A G H A A A H o.<.>.B B } $.>.3.3.2.3.o.[ A G X.G A Z A A A G G G Z + o o f                   ",
"                      . x A G G A G G G G G G G A { } Z N N { $...>.>.} G A G G G G G G G G G G A G Z $ # #                     ",
"                      O % A G G G G G Z G G G Z A G G N N H v.W.2.| G A A G G G G G G G G G G A A A b $   t                     ",
"                      e % Z A G G G G S G G G G G G Z N } #X%X%X$X5.N N G G G G G S S G G G Z G A A l $                         ",
"                        $ x A G G G G G G G G G G G N N b.%X%X%X%X~.Z b G G G G G G G G G G A A [ [ 1 $                         ",
"                        e % B G G Z G G G G G G G G N N b.%X%X%X%X~.N N G G Z Z A G G G G G G G [ B + $                         ",
"                          $ x G A G A A G G G G G G C N X.#X%X%X$X<.N N G G A A A A A A G A A A A k $                           ",
"                          e O b G G G b b G C G G G G N N { b.b.X.N N Z G G A G G G N N G G A A z o q                           ",
"                            0 $ C Z G b % b H G G G G G N N N B N N S G G G A Z G G u V Z G G b % $                             ",
"                              $ # x b r @ u C G G G G G G C B C N G G G G G A G G > # N G G k # 0                               ",
"                                $ X # k X X r N G G S S G A Z G G G G G G A A Z k $ $ B b 4 $ e                                 ",
"                                  1 n W.#.+ O + V Z G G A A G G G A A G A A Z 1 o O # r o # t                                   ",
"                                    k w.Q.w.> X o # x Z G A G G G G G G Z k + O + o = o e                                       ",
"                                      s 7./.n.r = ! ; + b N G G G G N x 1 O O + + $ y                                           ",
"                                        a ^ n.4 ~ H.V.o @ @ % u k % # @ # # @ o +                                               ",
"                                          o # 9 F.G.P k 4 o o X o > m < K , @ o o t                                             ",
"                                        $ O & V.C.I 4 =.-.z + X > D.A.Q m.W = k @.$ t                                           ",
"                                      $ $ $ 9 V.) O Z ;.;.T O z # > 4 - , = o # p.H $                                           ",
"                                    h o     . 6 : c M F #.z % ~.6.: $ # r v J @ ,.E.l $                                         ",
"                                    $ r     O % # n D F M + J @X@.@ r $ } c.c.u v `.h.% d                                       ",
"                                  h O       $     % b D z o s.[.% + 7.% o H c.S $ '.+XX.e                                       ",
"                                  e %     u %   s $ $ k % % W.s.X o % % S O { &.$ ].@X@.@ j                                     ",
"                                  # o + k r # % $ $   $ $ S ^.n @ $ N W.[.G % X.$ *.G o + e                                     ",
"                                @ 6 S./ + # # #         @ J b O % 0.].].*.% o % O . 8 e.q.& t                                   ",
"                                = J.U.L.M #         % O O O X J E./.6.k # k R k + 5 K.I.{.` e                                   ",
"                                & I.oX|.8 r       $ @ H h.V $ J s.l # X k =.;.#.z - Z..XoXZ.$                                   ",
"                                O q.oXXX7 u % o % H z.(.(.R.X.% o # z o z Y =.;.-.n 5 }. XU e                                   ",
"                                0 & ' L.R # o H z.(.).).).(.!.0.1 # k X b F D ^ -.-.- / U X                                     ",
"                                  t # o @ % a.R.!.`.).(.).)._._.z.Z % # 4 D D D ^ -.D $ e                                       ",
"                                        0 $ % f Z X.,.5.a.a.p.p.p.5.S k o 4 S D D T Y $                                         ",
"                                            y + - & + o o O $ # o $ o + + o + k c n 5 e                                         ",
"                                            r 3 q.N.M._ / = t   $ ; ' ] M.M.E o $ e e                                           ",
"                                            d o 8 ) _ ) 8 *     t o 7 ' _ ) 2 o                                                 ",
"                                              @ o * = o O #       # o = = : o 0                                                 ",
"                                              $ & 7 L 7 # e       # ; L P 8 o e                                                 ",
"                                              a X & * * #         e O - * = X                                                   ",
"                                                  e # y             0 $ $ e                                                     "
};
