/* XPM */
static char *f4cee3fd361a4318aecd628b6dc5c7edZ8jlnzbW6R5kdPts[] = {
/* columns rows colors chars-per-pixel */
"64 64 238 2 ",
"   c None",
".  c #1E190E",
"X  c #18150E",
"o  c #0F1B1D",
"O  c #161615",
"+  c #1A1615",
"@  c #151915",
"#  c #1B1A15",
"$  c #16171A",
"%  c #1A161A",
"&  c #14191C",
"*  c #1A1A1B",
"=  c #1C0F0F",
"-  c #241A0D",
";  c #27170E",
":  c #221612",
">  c #241B14",
",  c #2B1A13",
"<  c #22161A",
"1  c #231D1B",
"2  c #2C1C1B",
"3  c #2A1512",
"4  c #341916",
"5  c #1E201D",
"6  c #32240F",
"7  c #2C2214",
"8  c #23221D",
"9  c #2A241C",
"0  c #2D2C1B",
"q  c #33261B",
"w  c #36281A",
"e  c #37321C",
"r  c #0E1C24",
"t  c #0F1D29",
"y  c #161621",
"u  c #131B23",
"i  c #1C1D23",
"p  c #121D29",
"a  c #1C1E29",
"s  c #191C30",
"d  c #211E23",
"f  c #321F20",
"g  c #0B2126",
"h  c #1D2122",
"j  c #14212A",
"k  c #1A242D",
"l  c #162328",
"z  c #182733",
"x  c #132836",
"c  c #232324",
"v  c #2B2823",
"b  c #24252A",
"n  c #29262B",
"m  c #252A2D",
"M  c #2B2B2D",
"N  c #292625",
"B  c #322B23",
"V  c #312C2D",
"C  c #392A25",
"Z  c #39332B",
"A  c #2C2D33",
"S  c #242D39",
"D  c #302C31",
"F  c #2E3234",
"G  c #2E333A",
"H  c #293538",
"J  c #323236",
"K  c #32333B",
"L  c #35393D",
"P  c #3B3A3B",
"I  c #3B3638",
"U  c #452719",
"Y  c #50341B",
"T  c #411C21",
"R  c #5A2925",
"E  c #443B2E",
"W  c #473828",
"Q  c #453C34",
"!  c #4F3129",
"~  c #7B3536",
"^  c #46423A",
"/  c #554938",
"(  c #5B513F",
")  c #5F452C",
"_  c #684F37",
"`  c #182E40",
"'  c #273748",
"]  c #343A43",
"[  c #3B3C44",
"{  c #3C3E4A",
"}  c #353A45",
"|  c #2E364F",
" . c #313E61",
".. c #413F48",
"X. c #3D414B",
"o. c #394249",
"O. c #354759",
"+. c #2B4957",
"@. c #354A63",
"#. c #3D5564",
"$. c #3A5875",
"%. c #3B4871",
"&. c #424143",
"*. c #42434C",
"=. c #4A4848",
"-. c #584E4A",
";. c #444652",
":. c #464A56",
">. c #494A56",
",. c #464A59",
"<. c #4A4B59",
"1. c #494756",
"2. c #534D57",
"3. c #4C5258",
"4. c #535154",
"5. c #51525C",
"6. c #5D5C5C",
"7. c #58575C",
"8. c #595341",
"9. c #675946",
"0. c #625E5D",
"q. c #6B5F50",
"w. c #714546",
"e. c #6E604A",
"r. c #776549",
"t. c #786C58",
"y. c #7E7058",
"u. c #565662",
"i. c #545A63",
"p. c #5C5A63",
"a. c #5C5B67",
"s. c #475878",
"d. c #45526B",
"f. c #645F69",
"g. c #586368",
"h. c #4E617D",
"j. c #64636C",
"k. c #69656C",
"l. c #696A6B",
"z. c #777269",
"x. c #6A6672",
"c. c #6B6B74",
"v. c #646B73",
"b. c #716F78",
"n. c #67737B",
"m. c #74737D",
"M. c #7D7B7B",
"N. c #767677",
"B. c #716B69",
"V. c #862C32",
"C. c #833439",
"Z. c #8A2E29",
"A. c #A22E2F",
"S. c #95663A",
"D. c #9C652D",
"F. c #A46A36",
"G. c #8E494C",
"H. c #A84E4E",
"J. c #866745",
"K. c #85775B",
"L. c #897655",
"P. c #B5605E",
"I. c #84686A",
"U. c #8B7A62",
"Y. c #927966",
"T. c #847C79",
"R. c #B26F6D",
"E. c #998669",
"W. c #998C73",
"Q. c #A8916D",
"!. c #A99577",
"~. c #B49B7A",
"^. c #B19B6D",
"/. c #B8A279",
"(. c #C6AC7C",
"). c #D7B47C",
"_. c #515E83",
"`. c #566786",
"'. c #5A7D8F",
"]. c #687886",
"[. c #767A82",
"{. c #6F7998",
"}. c #5B819E",
"|. c #778489",
" X c #778698",
".X c #758A99",
"XX c #7B8AA0",
"oX c #7F92AB",
"OX c #898787",
"+X c #82929F",
"@X c #989797",
"#X c #898F93",
"$X c #A2978F",
"%X c #A3A19F",
"&X c #B7A383",
"*X c #8B9CA5",
"=X c #879DAB",
"-X c #899CAA",
";X c #8595A5",
":X c #919BAB",
">X c #96A1B1",
",X c #A8A8A9",
"<X c #ACB2B3",
"1X c #BBBBBC",
"2X c #B2B0AE",
"3X c #D19793",
"4X c #CAB188",
"5X c #D3B88E",
"6X c #C6B3B1",
"7X c #E9B0B0",
"8X c #DBC18C",
"9X c #DCC392",
"0X c #DAC394",
"qX c #E3C593",
"wX c #E8CB97",
"eX c #F1CC96",
"rX c #EDD39C",
"tX c #F3D29C",
"yX c #FCD69D",
"uX c #F5D99E",
"iX c #FDD99C",
"pX c #FEDA97",
"aX c #E6CC8F",
"sX c #FED7A1",
"dX c #FCD9A1",
"fX c #F5D8A2",
"gX c #AAB3C2",
"hX c #B4B8C4",
"jX c #B5C1CD",
"kX c #B6C6D4",
"lX c #C8CBCB",
"zX c #C3C9D6",
"xX c #DEDCDB",
"cX c #D6D7D7",
"vX c #D1D1D2",
"bX c #E7CBC1",
"nX c #DBE3E9",
"mX c #E2E2E8",
/* pixels */
"                                                j u & % & & * $ @ & u                                                           ",
"                                            u u * v I >.6.k.c.l.f.&.1 $                                                         ",
"                                      s * @ + % n I [ *.>.<.<.u.f.b.l.M &                                                       ",
"                                  k i y + + @ + @ % % # 1 M ..>.>.>.7.j.M &                                                     ",
"                                          a O % + % @ @ + % $ d [ 1.1.>.p.n o l a u & y y i k                                   ",
"                                    p * + 1 D ..=.5.p.7.5.;.&.L b A ;.>.:...* % d M J P L A * u l                               ",
"                                  % % D 4.c.[.c.x.a.u.<.<.>.<.>.>.*.*.>.>.1.[ [ >.5.u.f.c.m.k.I # &                             ",
"                              p & D f.b.j.u.<.>.>.>.1.:.>.>.>.>.<.<.<.<.<.<.<.<.>.>.:.>.>.5.j.m.2.# t                           ",
"                            u y *.k.a.5.>.>.>.<.>.>.1.<.>.>.>.>.>.>.>.<.<.<.<.<.<.;.[ F ] ..;.u.b.*.&                           ",
"                          i d 4.u.<.>.<.>.>.<.<.>.>.<.>.>.>.>.>.>.>.>.<.<.<.1.<.1.>.;.*.A & d J <.v.f &                         ",
"                        u % =.<.,.:.;.>.2.u.u.<.>.>.>.>.>.<.>.>.>.>.<.>.>.>.>.>.>.<.>.>.>.*.b % c ..A @                         ",
"                      p @ J *.[ F A *.j.c.u.<.<.>.>.>.1.>.>.,.1.>.>.>.>.>.>.<.>.>.:.>.>.>.>.>.K % % * @                         ",
"                      & % c % & A p.c.p.>.>.>.>.<.1.>.>.,.,.,.,.,.>.,.,.>.<.>.>.,.>.>.>.>.>.>.1.L @ # %                         ",
"                    i & @ % % J b.c.<.<.,.,.>.>.<.<.>.;.{ o.,.,.,.>.>.>.;.;.;.1.<.>.>.>.>.>.>.>.;.P % u                         ",
"                  l # & @ % o.N.f.>.>.>.>.,.:.:.1.*.} G ] ;.;.;.{ [ ] K J m b A { 1.1.>.>.>.,.>.>.>.[ &                         ",
"                  t     @ N b.x.>.>.,.,.:.,.1.;.[ K G G { o.] K K A b * % + $ % M [ 1.>.>.1.>.,.:.1.p.m %                       ",
"                      u * k.c.<.,.<.>.,.,.:.*.K K A G K K K K M i + O o @ @ @ @ # F [ ,.>.{ o.:.>.<.<.<.+                       ",
"                      & o.m.5.<.,.,.>.:.>.{ K G A F G G J A d % @ M 7.W.OXz.&.v % h F *.,.o.K ;.,.,.<.j.N &                     ",
"                    j # l.j.,.:.>.>.>.,.X.G G A m J J J c % @ V M.%X6XxXxXxX6X@X^ $ m K :.{ G { ,.,.<.i.-.o                     ",
"                    & I b.<.<.,.>.>.>.;.K J G k H G F * $ @ c 0.M.2XlXvXxXxXcX,XOX% * G [ ] G K 1.,.b.v.j.& j                   ",
"                    % 7.a.,.<.>.,.>.:.] G F b m F M @ @ # . X O + # N I 0.OX2X%X@X^ O M L K A K ;.1.c.[.m.d u                   ",
"                  p i x.<.1.>.>.,.,.[ G G F 5 F n & * j.#X#X@XOXB.=.V # + # # c J J + h G G m K X.,.j.[.[.D i                   ",
"                  a b j.;.{ >.:.,.:.L G G 5 5 b O % 6.M.B.N.0.-.P M c & % % O O O X + & F J d J { ,.a.c.b.I %                   ",
"                  y M 2.b *.>.,.:.o.G J A & @ @ @ O X X + : - 2 9 w Z E Q Q / / Z E v @ m A * A { ,.u.f.K [ &                   ",
"                  u V K 5 :.,.>.:.} K G c @ + $ % 8 Z 8.e.J.Y.E.Q.!.~.~.(././.!.U.q.=.@ N c % A { ,.u.k.i n %                   ",
"                  i c % 8 >.,.,.;.K A c @ % + % 1 Z t.&X4X5X8XwXeXtXtXtX9XU.W 9 . . - + * % $ b { ,.2.k.& + +                   ",
"                  % $ % h >.,.<...K K b + > q.9.W : > W qXiXiXiXpXpXdX/.0 . 7 9.K.U.E.1 * @ % A [ ,.5.x.% % +                   ",
"                  @ $ + c >.,.,.{ K K i # t.$X~.0X8Xy.6 9XiXiXpXpXyXdXQ.e W.wXrXwX~.W.9 + 9 + n { :.5.j.% y +                   ",
"                  # & + h ;.<.,.} G A @ # # 7 0 / Y.5XwXfXsXiXiXiXuXpXyXeX(.L.W B > : : Q t.+ b ..,.<.a.+ % +                   ",
"                  *   u * ;.<.,.} G N + P ].@.| ' 5 6 ^.yXsXsXiXiXfXiXfXr.> m ' O.%.[.c / t.+ b ;.,.5.5.#   $                   ",
"                  j     & [ :.,.} G d n hX`.%. .$. X0.w rXpXiXiXiXiXyX4X. OX].$. .$. X#X< 8.+ n ;.>.u.o.%                       ",
"                        & A >.>.{ G * 0.jX Xb.& +.].<X+ 4XpXiXsXiXyXyXK.9 zX{.hXl S _.vXV N + n :.,.p.M &                       ",
"                        u i :.,.} G y W.gXoX@X% ' `.lX: ~.pXiXiXdXyXiXr.I kX`.l.: k s.cX=.i O J :.1.2.& t                       ",
"                        p % P ,.[ A o z.zXs.,.X.%.{.lX. ~.yXiXiXyXdXiXy.Z cX_.X.f.| `.nX&.% % P ,.,.K &                         ",
"                          & n ;...A $ ..mX{.;X=Xs.jX@X- 0XyXiXiXiXdXiX!.: lX-X`.kX_.-XlX9 # % [ :.1.* p                         ",
"                          j y K ;.A $ % M.lX;X XgXvXQ ( fXyXiXiXdXdXpXwX7 j.nX>X X>XlX4.B Z i X.1.m $                           ",
"                            u < ..K % < + d L *.P 1 w qXyXyXpXiXyXyXiXdX!.8 N o.&.Z # 2 z.0 a X.K + p                           ",
"                              * b G $ B t.U.r.r.J.E.5XdXiXsXdXsXdXdXyXiXuX(.L.r.r.t.W.~./ % b P & u                             ",
"                                % * @ @ > L.9XfXdXdXsXiXiXiXeX).).yXiXiXpXiXpXiXyXaXQ.e : + i < &                               ",
"                                p & : a k @ 9 ( K./.5XeXuXdXtXtXrXfXfXuXrX9X(.E.9.C % g k % & r                                 ",
"                                  p + ' '.+.& % + # v Z / _ 9.r.r.9.9./ E B 2 # O $ x   ` % $                                   ",
"                                    t ` '.z % + % % 2 4 . % % + % + @ < 3 > + % $ @ x   z p                                     ",
"                                      z b p >.8 O + ! V.G.T.W 4 -.w.w.6Xw.1 + % K V u                                           ",
"                                      h # 3.[.@ $ + = U G.7XP.H.bX3XG.Y.4 + % % c M.N u                                         ",
"                                      o V XXi.@ P h & + ! I.w.C.$XI.f > : T = % $ |.g.@ p                                       ",
"                                    j @ n.-X] h g.g.h + $ % : > 2 = + + ! ~ 3 X @ g.+XS &                                       ",
"                                    X l.zX:Xh F |.].v.A o O @ V Q 2.D = R Z.R + $ X.hX,X1 j                                     ",
"                                    5 M.nXhX@ X.*X*XXX].G O + P [.,XM.O R A.V.: & J nX<Xn p                                     ",
"                                  p @ & ] 4.@ i.*X-X=X=Xi.5 z & * 3.#X* R R.3Xf % # Q h + %                                     ",
"                                p O E / - + & n.=X-X*X*X7.j #.' c $ c @ ! 3XR.f @ + * E e.q u                                   ",
"                                $ Q ~.~.Q.Z &  X-X=X=X-X7.l o.z b G & $ < R.7XQ % @ Z ~./.W.. k                                 ",
"                                % K.aX(.&XC i ;X-X*X=X=Xi.l m M.=.H y & 2 3XP.U @ @ w 4XwX5X- j                                 ",
"                                $ / fXsXaX0 m *X=X-X*Xn.:.l H o.m o.& # 3 ~ V.4 % y v wXtXK.&                                   ",
"                                u . r.qX8X5 G *X=X-X|.c A i #.+.@.@.& + + 2 3 & G # > $Xr.- p                                   ",
"                                  g @ 6 e u A ].XX.XP @ % a #.$.$.@.& c h 5 m 3.v.* X . . t                                     ",
"                                    $ & + % + @ 5 h % # + & S S S m @ F F 8 5 % + O r j                                         ",
"                                    u & # + & O 8 q Y ) + % & & @ @ > 1 : 7 0 2 &                                               ",
"                                              O Y S.S.F.S.) :   p : _ S.D.S.J.6 o                                               ",
"                                              t + w W Y W 3 y     + q W W W , + t                                               ",
"                                              j + , > # 3 . r     & < 3 ; , > &                                                 ",
"                                                @ 4 U U 2 +       u % 6 U U 3 #                                                 ",
"                                                r < 6 , + r         u + 6 3 # u                                                 ",
"                                                  r & & u             r & u u                                                   ",
"                                                                                                                                "
};
