/* XPM */
static char *_7f72f2e468b45bdae9e632736584651w6rIyutRemi6PIyZ[] = {
/* columns rows colors chars-per-pixel */
"64 64 216 2 ",
"   c None",
".  c #1D160D",
"X  c #161716",
"o  c #1A1615",
"O  c #161816",
"+  c #1B1915",
"@  c #16171A",
"#  c #1A161A",
"$  c #15191B",
"%  c #1B1B1C",
"&  c #0F1D15",
"*  c #23140B",
"=  c #241A0D",
"-  c #241709",
";  c #231514",
":  c #241B14",
">  c #2C1C13",
",  c #221C1C",
"<  c #271B19",
"1  c #331B14",
"2  c #1E211F",
"3  c #2C2516",
"4  c #25221C",
"5  c #2B231C",
"6  c #28241B",
"7  c #3B2516",
"8  c #35291B",
"9  c #38281A",
"0  c #3F331F",
"q  c #39240E",
"w  c #0E1B23",
"e  c #0C1D29",
"r  c #131B23",
"t  c #1C1E21",
"y  c #121D2A",
"u  c #1B1824",
"i  c #101F31",
"p  c #221D21",
"a  c #0E222B",
"s  c #1D2124",
"d  c #13222C",
"f  c #162227",
"g  c #132331",
"h  c #192839",
"j  c #222324",
"k  c #2B2323",
"l  c #24252A",
"z  c #25292D",
"x  c #2C2B2D",
"c  c #2A282A",
"v  c #342B21",
"b  c #332A2A",
"n  c #382D22",
"m  c #39342B",
"M  c #242B31",
"N  c #2C2E32",
"B  c #2D2F39",
"V  c #302D32",
"C  c #2E3136",
"Z  c #2F333B",
"A  c #2F3A3F",
"S  c #313235",
"D  c #31333A",
"F  c #3A363B",
"G  c #35383E",
"H  c #3B3A3B",
"J  c #3A3735",
"K  c #2A3124",
"L  c #4A2815",
"P  c #422318",
"I  c #532726",
"U  c #453C2D",
"Y  c #473926",
"T  c #493D32",
"R  c #443D38",
"E  c #782C2D",
"W  c #5D491D",
"Q  c #664A16",
"!  c #4E402E",
"~  c #50402C",
"^  c #474238",
"/  c #544535",
"(  c #594931",
")  c #54483B",
"_  c #644B34",
"`  c #674F39",
"'  c #62533C",
"]  c #6A553A",
"[  c #333541",
"{  c #363942",
"}  c #3B3C43",
"|  c #3D3F4A",
" . c #2B364C",
".. c #423E42",
"X. c #3E414B",
"o. c #3E4548",
"O. c #42444E",
"+. c #474648",
"@. c #514A49",
"#. c #434652",
"$. c #464A55",
"%. c #4A4A57",
"&. c #474A59",
"*. c #494A59",
"=. c #4D545B",
"-. c #525254",
";. c #51525C",
":. c #59565B",
">. c #5B5B5D",
",. c #58585C",
"<. c #5A5147",
"1. c #635542",
"2. c #6B5A43",
"3. c #6A584B",
"4. c #775954",
"5. c #6C564E",
"6. c #6F634F",
"7. c #74664A",
"8. c #776957",
"9. c #7A735A",
"0. c #62625F",
"q. c #565562",
"w. c #525B62",
"e. c #5B5B63",
"r. c #595A6C",
"t. c #47597B",
"y. c #625F63",
"u. c #605E6B",
"i. c #5A6168",
"p. c #5A6172",
"a. c #63636C",
"s. c #686668",
"d. c #676873",
"f. c #726D79",
"g. c #6C757B",
"h. c #73737C",
"j. c #787777",
"k. c #A23E4D",
"l. c #8C4C4A",
"z. c #866F56",
"x. c #887658",
"c. c #947E5E",
"v. c #A07D43",
"b. c #897863",
"n. c #90786F",
"m. c #AB7378",
"M. c #C2993F",
"N. c #94875E",
"B. c #8F826A",
"V. c #948364",
"C. c #9A8465",
"Z. c #98846A",
"A. c #9E8E74",
"S. c #A9926C",
"D. c #A99777",
"F. c #B59B74",
"G. c #B59C7B",
"H. c #BA9F7A",
"J. c #A08965",
"K. c #BBA27D",
"L. c #B9A377",
"P. c #C5A77B",
"I. c #445B82",
"U. c #58678C",
"Y. c #6B7983",
"T. c #777D82",
"R. c #697896",
"E. c #78868E",
"W. c #798992",
"Q. c #7C9098",
"!. c #7787A3",
"~. c #898787",
"^. c #878E96",
"/. c #87959C",
"(. c #969798",
"). c #968C89",
"_. c #8A9CA6",
"`. c #899DA9",
"'. c #8698A5",
"]. c #949AA2",
"[. c #91A2AE",
"{. c #A1A6AA",
"}. c #B9B9B9",
"|. c #ABAEB5",
" X c #C3AC87",
".X c #CCB288",
"XX c #D8B386",
"oX c #D8BA88",
"OX c #D5BD92",
"+X c #E5B2AD",
"@X c #DFC591",
"#X c #E2C48E",
"$X c #E4C595",
"%X c #EBCA95",
"&X c #E7C998",
"*X c #EDD39C",
"=X c #F2D597",
"-X c #FED994",
";X c #F3D39C",
":X c #FCD69C",
">X c #FDD99C",
",X c #F0CE96",
"<X c #EECEA0",
"1X c #F4D4A1",
"2X c #FBD6A0",
"3X c #FCD9A2",
"4X c #F5D6A4",
"5X c #EBD4A6",
"6X c #B2BBC5",
"7X c #C7C8C5",
"8X c #D2D0CE",
"9X c #DAD6D6",
"0X c #D1DBE3",
"qX c #DBE2EB",
"wX c #E5ECE6",
"eX c #EDF1ED",
/* pixels */
"                                                              h a g g                                                           ",
"                                                      g a r $ @ % % % X y                                                       ",
"                                            h g y # o o X o , H :.a.a.-.b $ d                                                   ",
"                                        y $ O s b H H ..H V j o j } ,.f.h...X a                                                 ",
"                                    a @ # } a.h.T.Y.h.f.h.h.h.s.+.s z O.r.h...$ d                                               ",
"                                  $ , R u.a.,.;.%.%.%.%.%.%.;.w.e.a.%.C X.q.f.G $                                               ",
"                                $ % R J N t s s p N [ #.%.%.%.%.*.%.%.,.| &.q.a.k $ f h                                         ",
"                            a # O $ @ O + u j D ..#.#.*.%.%.&.*.%.&.%.#.%.&.*.q.e.k 4 % u X $ $ a d                             ",
"                          g $ X + O @ s S X.$.$.&.&.*.*.&.%.%.%.&.&.&.&.*.*.&.&.r.a.u.a.e.:.+.F k @ r                           ",
"                        e + # # @ j o.#.$.*.%.%.%.%.&.&.%.&.&.%.%.%.%.%.;.%.%.%.%.&.*.%.q.r.d.h.h.,.% r                         ",
"                      w o . X t D #.$.$.*.%.%.%.*.*.*.*.*.*.%.%.%.%.%.%.%.%.%.%.*.*.*.*.#...%.%.u.f.:.% y                       ",
"                    y   r X s o.%.=.$.%.%.%.%.%.%.%.%.%.%.%.%.%.%.%.%.%.%.%.%.%.*.*.*.*.#.B p l { -.f.H $                       ",
"                        w t #.$.%.$.%.%.%.$.%.#.O.X.X.| $.%.%.%.%.%.%.%.%.%.%.%.%.*.*.*.%.&.G t # p } -.+                       ",
"                      r % ..&.*.$.$.$.%.$.#.} D D Z Z D O.%.%.%.%.%.%.%.%.%.%.%.*.*.*.*.%.&.$.} # # # j + r                     ",
"                    a @ D *.&.&.&.&.%.O.{ D D B N z z Z G %.&.%.%.%.%.%.%.%.%.%.%.%.%.%.&.%.%.%.{ # X X X +                     ",
"                    w p O.*.&.&.$.$.} D N l t % X X X x D #.&.%.%.%.%.%.%.%.%.%.%.%.%.%.%.%.%.%.&.D o + r $                     ",
"                  g @ H *.*.*.%.O.G l % + X 4 ..s.s.% s S o.%.*.%.%.%.%.%.%.%.%.%.%.%.%.%.%.$.&.*.%.p #                         ",
"                  y t O.&.&.*.#.N t o @ R ~.}.8X9X8Xm O C { $.| %.%.%.%.%.%.%.%.%.%.%.%.%.*.#.&.&.&.{ r t                       ",
"                  # x $.&.%...p # $ @ # c +.s.(.}.9X>.O N D #.[ %.%.%.%.%.%.%.%.%.%.%.%.%.%.#.D | #.%.j +                       ",
"                  # { $.$.G % % @.n.a.+.b % O + % J x O z D { Z ..%.%.%.%.%.%.%.%.%.%.%.%.%.#.Z D { &.[ #                       ",
"                a + #.$.S O O -.(.).j.s.@.j O @ X X X o s D S S ..*.*.*.%.%.%.%.%.%.%.%.*.%.#.Z Z Z } o.#                       ",
"                r p #.V % o o @ + o o o + < k n U ^ @.; t C S N  .*.*.*.%.%.%.%.*.%.%.%.%.%.O.D Z B z } % r                     ",
"                $ j [ # # v ! ) 1.6.9.9.9.9.B.D.L.F.G.9 % B N z D %.*.%.%.%.%.%.%.*.%.%.*.*.X.Z Z C $ B < r                     ",
"                % , $ X ; 8.K.K.Z.3.8 < < Y ' N..XOXF.T X B x s D %.*.%.%.%.%.%.%.*.*.;.*.&.X.Z Z Z 2 s , %                     ",
"                r o O f o C.$Xb.5 + n 7.F.$X2X>X>X,XK.1.X z j 2 D ..%.%.%.%.%.%.&.&.&.&.&.&.} Z Z D j # % %                     ",
"                % $     o N.oX5 Y C.&X;X=X=X4X-X-X4XK.8.X l % %  ...*.%.%.%.%.%.&.| %.&.%.%.D Z Z D j o @ %                     ",
"                r e     O b.=XF.OXS.] ! m U 2.$X>X>XP.b.o u + % [ | &.%.*.*.%.%.&.D | &.#.O.D Z Z D l + $ t                     ",
"                i       $ 3.:X@XY r  . .r.h.b / &X>XP.n.+ X + % [ | *.*.*...*.%.| D D #.$.G S Z Z D l # $ f                     ",
"                        $ / >XB.b d.t.I.I.6X7X6 x.>X.XA.+ o o O D | &.&...[ &.&.[ D D | O.D Z Z Z D l o $ s                     ",
"                        r n *X1.=.p.h 6XU.!.eX0.! =XoXD.4 : + 2 Z ..%.#.[ [ ..| Z D D G D D Z Z Z D j X @ %                     ",
"                        f 6 &X' r.X.f >.t.U.qX).5 #XoXD.3 @.6 + Z | | [ B [ | [ Z D D Z D D S Z D D % X $ %                     ",
"                        d < $X1.w.,.@ a.R.U.wX(.k &XoXG.Y B.2 % D D Z Z Z Z [ B Z D S D D D C B D S # $   y                     ",
"                        f 3 *Xx.R /.{ t.I.`.eXs.Y =X#XF.C.n.+ s D [ D V D D Z z Z S D D D S N t D x X                           ",
"                        $ m =X X< (.!.U.!.9X8Xk z.:X:XP.K.z.o l D D D D D D N l B D D D D D j u V p @                           ",
"                        + ^ -X1X( S ^.(.(.j.m ~ $X:X:XXXG.3.o x D D D D D S t C D D D D D N # @ j O                             ",
"                        $ ! :X>X.X( 8 3 8 n ` OX3X:X:X#XG.U @ N V D D D D s s C D D D D V , o o + $                             ",
"                        r 6 $X>X:X:X;X*X<X4X3X>X>X3X>X#XD.6 % S D D D D z $ C C D [ D V t X o o @                               ",
"                          $ x.2X>X:X:X:X>X>X3X:X>X:X>X.Xb.+ p D Z D S z O j Z Z D D V # @ y $ O                                 ",
"                          w : z.*X>X>X>X3X>X>X>X>X>X%XF.1.O z Z Z C l @ % S D Z B z % O     $ r                                 ",
"                            $ + U n.@X=X>X>X>X>X=XoXL.F.8 @ N D N 2 + + z D C z p o r       w                                   ",
"                                u ; 9 ( 8.C.D.S.C.c.n.8.+ 2 N j @ # # t x s % # + %                                             ",
"                                    e r o X # o ; u o + X O + o + X # # o O @ % y                                               ",
"                                          y X R R 9 + O X o o @ t O o # + @ q Q 0 d                                             ",
"                                          u ; ).5.> + s +.j + w.g.C O % + @ W M.v.,                                             ",
"                                          u k :., X 4 p.i.% C '.W.i.% N H @ : q q                                               ",
"                                          y O . o O o.W.i.O i.`.^.g.z t >.@ k @.j                                               ",
"                                          u : P : , E.`.=.$ g.`.Q.Y.X.X o @ + J s                                               ",
"                                          # I E + G '.`.{ % W.`.'.Y.w.# o 2 O + f                                               ",
"                                          + n.l.o j Q._.C l _.[._.E.g.s #   X 5 r                                               ",
"                                          , m.4.o X ;./.s H qXqX0X{.{.x t l # + w                                               ",
"                                        r K +X4.O , X } % x (.6X|.j.y.4 + % o X                                                 ",
"                                        r 1 k.I % ~.H o X X X X @ + X $ + $ # $                                                 ",
"                                        r ; 9 5 # >.}.j.O 5 7.' ' 2.8.j o l % r                                                 ",
"                                        r # + + , @ S f.+ ^  XK.P.P. X/ O   j $                                                 ",
"                                        $ M [ d T.X.r X o Y *X:X:X:X5XU %   4 $                                                 ",
"                                        @ l M C ~.Q.E.=.z : C.%X;XOX7.+ , j @ $                                                 ",
"                                        w X # + j h C D z + 4 / <.b . @ o @ r e                                                 ",
"                                              $ . 3 : O o - = = = > 8 o # e                                                     ",
"                                              e + 6 < @ : ` ] ` _ _ Y . $                                                       ",
"                                                o : 6 = + . * * * . . X                                                         ",
"                                                + > L 7 o : 9 P P 9 , #                                                         ",
"                                                $ = 7 8 + ; L L L P * r                                                         ",
"                                                  @ X X X o > > > - $                                                           ",
"                                                          $ $ u @ r                                                             "
};
