/* XPM */
static char *faf2c08ce9554a628a23df1b7a02ebfdbUVJ5nxTgsEH2SFB[] = {
/* columns rows colors chars-per-pixel */
"64 64 208 2 ",
"   c None",
".  c #1A150E",
"X  c #19180F",
"o  c #161616",
"O  c #1A1614",
"+  c #161915",
"@  c #1A1915",
"#  c #16171A",
"$  c #191619",
"%  c #14191C",
"&  c #1B1A1C",
"*  c #0D1A1F",
"=  c #20150D",
"-  c #201A0D",
";  c #221614",
":  c #231B15",
">  c #2B1C15",
",  c #261E1B",
"<  c #281E19",
"1  c #301C12",
"2  c #1F2119",
"3  c #252116",
"4  c #21201C",
"5  c #2C221B",
"6  c #292010",
"7  c #33251B",
"8  c #392518",
"9  c #322C16",
"0  c #0D1C23",
"q  c #0D1E29",
"w  c #131B22",
"e  c #1C1D21",
"r  c #121E2B",
"t  c #161524",
"y  c #131E30",
"u  c #221E22",
"i  c #152025",
"p  c #1D2124",
"a  c #13222C",
"s  c #1C242B",
"d  c #0D2533",
"f  c #182533",
"g  c #14253B",
"h  c #132735",
"j  c #0F2529",
"k  c #232323",
"l  c #2A2424",
"z  c #24262B",
"x  c #29262A",
"c  c #27282C",
"v  c #2A2A2C",
"b  c #282920",
"n  c #342A23",
"m  c #392D24",
"M  c #322C2C",
"N  c #322324",
"B  c #3B352B",
"V  c #3A332B",
"C  c #2C2D33",
"Z  c #242E37",
"A  c #332E35",
"S  c #2D3135",
"D  c #2F333A",
"F  c #28353D",
"G  c #313336",
"H  c #3A3434",
"J  c #3E3A36",
"K  c #31333A",
"L  c #3A373C",
"P  c #33393D",
"I  c #3C3B3D",
"U  c #442816",
"Y  c #462714",
"T  c #463725",
"R  c #443D3A",
"E  c #443834",
"W  c #4E432E",
"Q  c #56482A",
"!  c #4D4232",
"~  c #53493B",
"^  c #584936",
"/  c #684E37",
"(  c #745838",
")  c #655136",
"_  c #2C3B48",
"`  c #343641",
"'  c #353942",
"]  c #3B3C44",
"[  c #333E4A",
"{  c #3C3E49",
"}  c #413E49",
"|  c #4B3E42",
" . c #3E414B",
".. c #374349",
"X. c #344554",
"o. c #3C4A5A",
"O. c #3E597F",
"+. c #42444D",
"@. c #494846",
"#. c #534946",
"$. c #5A5448",
"%. c #444552",
"&. c #494653",
"*. c #464A55",
"=. c #4A4A57",
"-. c #464A59",
";. c #484A59",
":. c #494959",
">. c #494A59",
",. c #495358",
"<. c #535659",
"1. c #5A5A5C",
"2. c #535759",
"3. c #524D5A",
"4. c #605542",
"5. c #68594A",
"6. c #725D46",
"7. c #624C44",
"8. c #79694C",
"9. c #716051",
"0. c #545461",
"q. c #535D64",
"w. c #5A5D65",
"e. c #435B7B",
"r. c #495873",
"t. c #495366",
"y. c #615E69",
"u. c #5B646A",
"i. c #4F627F",
"p. c #61636C",
"a. c #67686D",
"s. c #6C6B73",
"d. c #6C6F7A",
"f. c #666772",
"g. c #726D7A",
"h. c #65717A",
"j. c #6B737C",
"k. c #6A7479",
"l. c #777479",
"z. c #736B6E",
"x. c #85775E",
"c. c #8A7357",
"v. c #8C7461",
"b. c #7E817C",
"n. c #988567",
"m. c #9D936E",
"M. c #A78C72",
"N. c #A99778",
"B. c #AB9874",
"V. c #B39B75",
"C. c #AD936A",
"Z. c #BDA27B",
"A. c #C6AC7C",
"S. c #405486",
"D. c #4E6482",
"F. c #667186",
"G. c #717D87",
"H. c #727B8A",
"J. c #787B81",
"K. c #617797",
"L. c #728186",
"P. c #7A858D",
"I. c #73818B",
"U. c #6A809E",
"Y. c #7B8992",
"T. c #788590",
"R. c #85929D",
"E. c #899197",
"W. c #91969D",
"Q. c #A08486",
"!. c #BFA680",
"~. c #8A9CA7",
"^. c #869CAB",
"/. c #889CA9",
"(. c #8495A3",
"). c #889DB0",
"_. c #8DA1AC",
"`. c #9CA6B2",
"'. c #A6A8A7",
"]. c #A3ADBB",
"[. c #A9B2B5",
"{. c #B3B6BC",
"}. c #C1A984",
"|. c #CFB98A",
" X c #C9B583",
".X c #D5BF8C",
"XX c #D9BB91",
"oX c #DDC59D",
"OX c #D7C192",
"+X c #E4CC9A",
"@X c #E5C895",
"#X c #F3CD9E",
"$X c #FCDA96",
"%X c #F2D39B",
"&X c #FBD59B",
"*X c #FDD999",
"=X c #F1D99A",
"-X c #C3C0BE",
";X c #EFD4A0",
":X c #FBD6A3",
">X c #FCD8A0",
",X c #F3D5A3",
"<X c #BCC2C8",
"1X c #BFC4D9",
"2X c #D4D4CF",
"3X c #CCD4D7",
"4X c #D9E4EA",
"5X c #E8E7E4",
/* pixels */
"                                                            f i % % w r y f                                                     ",
"                                                        g w & k H H V v k & # r h                                               ",
"                                                      g # x p.j.d.j.g.s.a.1.I : o w d                                           ",
"                                                      % B z.s.0.=.=.&.} K x u o + O # w a                                       ",
"                                                    # C g.f.=.*.[ C Z C L I ' ] K C x & o # q                                   ",
"                                                  w k s.p.&.[ '  .*.=.=.>.=.-.=.=.=.=.%.{ C & % w                               ",
"                                            f a r $ <.f.%.] %.*.*.*.=.-.=.=.=.=.=.-.=.=.:.=.+.P & o y                           ",
"                                    r w % $ & , l | p.;.&.&.=.=.=.=.=.=.=.=.=.=.=.=.=.=.;.=.;.>.%.C O &                         ",
"                                  w # v +.2.u.p.p.y.=.;.>.=.:.=.=.=.=.=.=.=.=.=.=.=.=.=.=.>.:.:.=.-.G ; t                       ",
"                              h # x p.l.l.w.0.-.-.=.=.>.=.=.=.=.=.=.=.=.=.=.=.=.=.=.=.=.=.:.-.>.=.;.*.] % %                     ",
"                              % L g.d.w.=. .>.=.>.=.:.:.=.=.=.=.=.=.=.=.=.=.=.=.=.=.=.3.=.=.=.=.=.-.;.*.' % w                   ",
"                            % z d.f.&.P C +.-.=.=.=.=.=.=.=.=.=.=.=.=.=.=.=.=.=.=.=.>.=.=.=.=.=.;.&.;.;.;.K o d                 ",
"                            & 3.0.L , C %.=.=.=.=.=.=.=.=.=.=.=.=.=.=.=.=.=.=.=.=.=.=.=.=.=.=.=.*.&.=.;.;.+.5 0                 ",
"                          s k &.u + D *.;.=.=.=.=.=.=.=.=.=.=.=.=.=.=.=.=.=.=.=.=.=.=.=.=.=.=.=.=.;.=.,.;. .& w                 ",
"                          e @ & $ M =.;.&.;.=.=.=.=.=.=.=.=.3.=.=.=.=.=.=.=.=.3.=.=.=.=.=.&.=.=.=.=.>.>.=.z # %                 ",
"                          w o @ z &.=.=.=.=.=.=.=.=.=.=.=.:.:.=.=.=.=.=.=.=.=.=.=.=.=.=.=.3.=.=.=.>.>.>.K # e # j               ",
"                          w o & } >.=.=.=.=.=.=.=.=.=.=.=.=.=.=.=.=.=.>.=.=.=.=.=.=.=.=.=.=.=.=.;.;.-.] & o L u 0               ",
"                          D & v =.>.-.=.=.=.=.=.=.=.=.=.=.=.=.=.=.=.=.&.=.=.=.=.=.=.-.=.=.=.=.=.=.;.+.e o $ K v #               ",
"                          f & ] >.>.>.=.=.=.=.=.=.=.=.=.=.=.=.=.=.>.>.%.&.=.=.=.=.=.&.%.=.=.=.=.>.+.e & #., z H @               ",
"                          w c *.>.>.;.=.=.=.=.=.=.=.=.=.=.=.=.=.=.=.{ K %.=.=.=.=.=.+.K -.=.>.>.&.v o #.'.u u } @ a             ",
"                          o K &.+.-.-.;.=.=.=.=.=.=.=.>.>.>.-.=.=.} K K +.:.>.-.-.+.z P -.=.-.%.x $ $ k , $ & ] $ j             ",
"                          @ ] ] ` =.-.;.=.=.=.=.=.=.=.=.=.>.&.=.+.P K K { >.:.>.+.C e } =.=.+.v + X , n V & e } & a             ",
"                        i & ] z ' -.:.>.=.=.=.=.=.=.=.=.=.=.=.*.` K K K ` >.:.%.K u e } +.+.z @ B x.M.V.N.9 $ K & a             ",
"                        e @ S % L -.:.=.=.=.=.=.=.=.=.=.=.=.-.' D D K K L :.:.' C $ e v , $ o @ ~ n.XX@XoX7 o & #               ",
"                        e @ & & ' -.-.} %.-.:.:.-.-.&.>.;.*.+.P K K C K D %. .` x $ e L & ; H m : 6 9.OX@Xm O O #               ",
"                        i . @ e P *.&.` { &.:.:.-.*.;.;.;.;.[ K K K C K D { ` D e O & o @ $.V.|.Z.Q - ( +X5 # o &               ",
"                        s o $ & ` %.{ ` ` *.=.>.*. .;.-.;.%.K D K G z S K K F S , O O o 4 B W 6.n.|.M.V.XX3 e w                 ",
"                        s O o e D { ` D D { &.=.] D +.*.:.{ D D K G e K K D P C $ O u o R w.[ Z & 9 B.$XA.&                     ",
"                          # o e D ` K K D K %.*.P D `  .-.` D D K S 2 S G D D v o ! M @.2XR.e.S.r.=.9 @XV.o                     ",
"                          o o & A K D K K K ' { K D D P { ` D K K D & S G D K z & J 4 2X3XO.U.3Xo.H.. }.v.#                     ",
"                          w & # A K D G G G D P K K K K D K K K K G & c G K K x @ v H 5X].S.X.I k F.@ V.5.%                     ",
"                          a   % x K C D K K K D D K K D K K K K K G & k G D K k + v J 5X].S.F.b e G.@ V.^ w                     ",
"                              % k D k z D K D D K G K K K G K K K G 2 e K D D z + E 5 2X3Xe.K._ t.P.- |.^ w                     ",
"                              w O Z 2 & D K D K K K K K K K K K K K k # C K D v & 5.5 b.5X`.i.i.].2.^ ,Xc.%                     ",
"                                $ < & % z D D K G G K K K D K K D G v # k K D v # 4.x.3 l.'.[.[.b., V.>Xn.&                     ",
"                                w O o o $ c K K K K K c K D D D K D S @ o C K C & T oX8.m 3 , < 5 6.%X*Xv.#                     ",
"                                  w . O o & n K D D K c p G K K K K K 2 o k S S e > XX*X,X+XOXOX+X:X*X&X) w                     ",
"                                    % @ s w $ C D D K C & e C G K D D z o # z D k O n.$X$X*X*X*X*X&X&X}.3 r                     ",
"                                      #     # @ p D K D c % & C K K D S & # # v v & E #X&X>X&X>X>X>X!.m *                       ",
"                                      a       % & @ k C G p + # z C D D z o o o l , - n.>X>X&X%XA.8.3 w                         ",
"                                                  % $ e u x & & # & v G S & + @ O O + 8 m.n.8.! , % r                           ",
"                                                      r O O $ $ $ $ O & k v o o $ $ o o . o * * r                               ",
"                                                        # o $ $ $ & & o o O o + O N | , $ f                                     ",
"                                                        w # k % % @.G.S o o # + O N Q.E # g                                     ",
"                                                        2 p 2.+ C j.(.h.o S u.P . = E #.O                                       ",
"                                                        * +.,.@ <.L.^.R.2 v P.h.u $ % O %                                       ",
"                                                      q + k.P & f.L.^./.P & Y./.*.s ` # w                                       ",
"                                                      @ k L.z p k.I././.,.o k./.k.0 X.i w                                       ",
"                                                    r = C T.e G L.T._._.k.o u./.E.p _ f %                                       ",
"                                                    % = ..G.% 1.`.{.4X4X<X# *./._.F Z ..+                                       ",
"                                                  % # O ,.h.# R l.W.<X{.J.% @.^.~.q.i o.% 0                                     ",
"                                                  $ v O u.d.# @ + o & o o # ,./._.L.i o.p w                                     ",
"                                                  @ H + h.q.@ ~ 6.~ ^ 4.R @ u./.^.R.s ..Z o                                     ",
"                                                  o o + G...: N.Z.Z.A.}.n.. ,./._.(._ Z _ .                                     ",
"                                                  z x # Y. .@ }.:X%X%X:Xm.X t._.).).o.s X.%                                     ",
"                                                e @.5 o L K @ T  X=X=XXXm % L.R.R.Y.2.2 C . a                                   ",
"                                                k #.m @ @ X $ $ 5 7.6.T ; & A A v k & % % %                                     ",
"                                                z #.R H b + # @ 6 . = ; : @ + & 2 ; &                                           ",
"                                                k #.J H e   t > Q Q ^ / ( T O ; 3 : t                                           ",
"                                                e B m e     w O ; O O . . O ; 1 > O r                                           ",
"                                                  j q         $ 7 U Y Y 8 O : U 8 ; r                                           ",
"                                                              $ 1 Y Y Y 1 = > 8 > #                                             ",
"                                                              r O 1 < > = O O $ $ 0                                             ",
"                                                                % % % $ & q                                                     "
};
