/* XPM */
static char *_cb32bad5e5c45498a8afcf933006d48I0FEoCyoJCIy2uKa[] = {
/* columns rows colors chars-per-pixel */
"64 64 99 2 ",
"   c #453622",
".  c #473823",
"X  c #4A3B25",
"o  c #463A2A",
"O  c #4B3D2A",
"+  c #463D33",
"@  c #453F3B",
"#  c #4E412D",
"$  c #52432E",
"%  c #4B4135",
"&  c #47403B",
"*  c #4A423B",
"=  c #544633",
"-  c #564935",
";  c #594B36",
":  c #524738",
">  c #55493B",
",  c #5C4E3B",
"<  c #5E513D",
"1  c #61533F",
"2  c #433F41",
"3  c #444143",
"4  c #4A4544",
"5  c #43434B",
"6  c #4A4749",
"7  c #564C41",
"8  c #554F4A",
"9  c #5D5142",
"0  c #5A524A",
"q  c #474750",
"w  c #4A4A52",
"e  c #4F4F58",
"r  c #5E5756",
"t  c #53535D",
"y  c #5A565B",
"u  c #635542",
"i  c #665945",
"p  c #685B47",
"a  c #655A4B",
"s  c #6B5D4A",
"d  c #615B5C",
"f  c #6E614E",
"g  c #70624F",
"h  c #6D6152",
"j  c #6C635B",
"k  c #736552",
"l  c #766955",
"z  c #786A57",
"x  c #72665B",
"c  c #766A5B",
"v  c #7A6C5A",
"b  c #7F715C",
"n  c #565661",
"m  c #595964",
"M  c #5E5E6A",
"N  c #625F65",
"B  c #666164",
"V  c #6B6563",
"C  c #62626E",
"Z  c #6B676F",
"A  c #756B64",
"S  c #796E61",
"D  c #756E6C",
"F  c #676774",
"G  c #6A6771",
"H  c #696976",
"J  c #6D6D7D",
"K  c #777071",
"L  c #7B7475",
"P  c #73717D",
"I  c #7D787E",
"U  c #80725D",
"Y  c #847662",
"T  c #877968",
"R  c #897D6E",
"E  c #8B7F70",
"W  c #6F6F80",
"Q  c #707081",
"!  c #7F7881",
"~  c #767689",
"^  c #79798D",
"/  c #7E7E93",
"(  c #827C85",
")  c #827E8C",
"_  c #86818A",
"`  c #8A848A",
"'  c #838295",
"]  c #8A8797",
"[  c #8C8896",
"{  c #84849C",
"}  c #8B899D",
"|  c #8787A0",
" . c #8C8BA4",
".. c #8E8EA9",
"X. c #908FA4",
"o. c #9290A5",
"O. c #9291AD",
"+. c #9595B2",
"@. c #9898B5",
/* pixels */
"F F F F F F F F F F F F F F F F F F F F M t w w 5 z > 5 5 q q q q w q q w w w w w q w w w w w e w w w e w w q w q 4 p J J F F F ",
"F F F F F F F F F w F F F F F F F C m t w w q 5 5 v i 4 5 5 5 5 q q q q q q q q q w q q w w q q w w w q q w 5 5 3 6 g G J F F F ",
"F F F F F F F F F F F F F F F F C m w q q q 5 5 < z z f : % % & % * & 3 & 3 4 4 3 3 5 5 5 5 5 5 5 5 5 5 5 5 5 5 5 5 k 0 J F F F ",
"F F F F F F F F F F F F F F F m t w w q 5 5 # f v z v b v c l k l l k f h f < > , , = $ = , ; = % # # = % % % : , u k 0 J F F F ",
"F F F F F F F F F F F F F M t w q q 5 5 & < z c  .O.~ J W ~ ^ ^ ^ }  ...O.O.O.O... .} ' ' ) ) ( l k l x c l l h z p f < n M H H ",
"M C F F F F F F F F C M t w w q 5 3 % . < v H J J W J W W W W W J W W W J W W W Q J J P P J J W Q Q ^ { | ..O.O.+.@.i g t n n n ",
"t t n n m n m m m m n t w q q 5 5 # f c A J Q W W J J H H H H H H H H H H H H H H J H J H J H J J J J J J J J J W W r l n n n t ",
"m n n t n n t t w w w q w 5 5 X < k v J Q J J H H F F F n F F F F F F F H F F F F F F F F F F F F F F F H m H F H W J h , n n m ",
"w w w w w w w w w w w 5 5 . $ s v W W W J F F F F F J F F F F F F F F F F F F F F F F F F F F H F F F F F M F F H H J i > t e e ",
"w w w w w w w w w 5 5 + X g c J J J J H F F F F F F F F F F F F F F F F F F F F F F F F F F F F F F F F F ' C C m n C p 9 e w w ",
"3 5 5 5 5 3 @ o X X . O z C C F F H F F F F F F F H H F F F F F F F F F F F F F F F F F F F H F F m m n t e w w w w 5 9 h 5 5 3 ",
"X X X X - i u ; ; , z v M n t t t m M M C C C C C C C C C F C F C C F F F F F F F C F C C M m y t w w w w w w w q 5 5 < k u $ X ",
"z z v _ ..O.O.+.O.D z a w w w w w w t e e e e w e e t t t n n t n n n n n n n n t n t e e w w w w w w w 5 5 5 & O X X i l l l z ",
"+.O.+.| / Q J J J { z 0 5 w w w q q q w q q q q q q q w w w w w w w w q w w w q w w w w q q 5 5 5 3 o X X X o = i z l l v ~ ..+.",
"W W W J W W W W J J d f 8 5 3 5 3 5 5 3 5 5 3 5 5 5 5 5 5 5 5 5 5 5 5 5 5 5 5 5 5 5 5 5 6 & # .   X ; u k S ] ..O...{ ~ J J J W ",
"H H H H H J W J W J : k k p ; O # . . # . # #         # # #       #     #       # - i < < f h _ ..O.+.+...Q J J J J J J J H H J ",
"H H F H F F F H J W 0 l z z v z b z b z z c z c A A A A K K K K D D D D c b v v v z l I +.@.+...~ J J J J J J H H H F F F F F F ",
"F F F F F F F H J J r z P O.+.O.O.O.O.+.+.O...........{ ^ ^ ~ ^ { | ....O.O.+.@.O.z u O./ J W J J J H F H F F H F H F F F F H F ",
"F F F F F F F F J J d k J J W J J Q J Q J W W J Q J P J J P J Q J J W J W W Q J O.< < J W W W J H F F F F F F F F F F F F F F F ",
"F F F F F F F F J J J k J J J Q W J Q J Q Q J J J H H J J H J H J J ' W W J J J H < > J W W F F F F F F F F F F F F F F F F F F ",
"F F F F F F F F J J J k J J J J P J J H H F F F F F F F F F F F H F H J J W W W H < ; W C J F H F F F F F F F F F F F F F F F / ",
"F F F F F F F F H W J k J W W J J H F F F F F F F F F F F F F F H ~ F F H J J W J ; ; W J F m F F F F F F F H F F F F F F n ~ H ",
"F F F F F H F F H W Z l W Q J J H H F F F F F J F F F F F F F F F F F F F H W P J < < J J F F F F F F F F F F F F F F W ~ F F F ",
"F F F F F F F F H J J l J J J F F F F F F F F H w F F F F H F F F F F F F H J Q J 9 ; J F F F F F F F F F F F F F H  .F F F F F ",
"F F F H F F F F F J H k J J J F F F F F F H F F F F F F F F F F F F F F F F F J J 9 ; F C H F F F F F F F F F F F F F F F F F F ",
"F F F F F F F F M M C k Z J J F F F F F F F F F F F F F F F F F F F F F F F C n M < < n n n M C F F F F F F F F F F F F F F F F ",
"F H F F F C M M n w e k B J H F F H F F F F F F F F F F F F F F F F F F C M n n m < , t e t t n t n m M M M C C C C F F F F F F ",
"n n n n n n n n e w w k N M M F F F F F F F F F F F F F F F F F F C M M m n n t t < > w w w e t t t t t t t t t t t t t n t n n ",
"w w w w w w w w w w q l m n n n t M C C C C C C C M M M M M m m m m m t t t e w w 9 1 5 5 5 w w w w w w w w w w w w w w w w w w ",
"q 5 5 5 5 5 5 5 5 5 5 l M t n n t t m m m m n m n m m t m t m t t t t w w w q 5 5 s k = 5 5 3 5 5 5 5 5 5 5 q q w w 5 w w w w w ",
"3 3 3 4 3 3 3 & @ & ; z y t n n n t m t m m y m t m t t w e q q q q q 5 3 2 5 3 - l v g $ o X X o + @ @ 3 2 3 5 3 2 3 3 & @ 3 3 ",
"; ; - $ = $ $ , < p h v 0 t t n n n t m t t t w w w w q q q 6 5 5 5 5 5 & # ; f l z v z l l g i u ; ; # # X # ; p 9 u u u 1 1 1 ",
"O.+.+.O. ...[ ' ! S v z 9 w w w w w w w w w w q w 5 5 5 6 3 * + % # < f f c `  .@.@.+.+.+.@.@.@.@.+.@.+.@...' c l O.@.+.+.+.+.+.",
"Q W W W Q Q J J J ~ Q z i w w q w w q q q 5 5 3 @ O $ o # < g k L X.+.@.+...^ Q Q Q W W W W W W W W W W W ^ @.c k ..~ Q Q Q W Q ",
"Q W J W J Q J J W W W c z > 5 5 5 5 3 2 O = = = u p z v O.+.+.+. .~ J Q Q Q Q Q W W W H H J H W J m J W W Q Q f f H J Q W J J Q ",
"F H F F H G F F H H J W l f < = ; ; s s l s A | O.s z P J P Q Q P Q Q J W J H H F F F F F F F F F F F H J W P i f J J J H F F H ",
"F F F F F F F F F F F J z z l f ( ' O.O. .^ J J J , z Z Q W Q W W H H F F F F F F F F F F F F F F F F H J W J 9 < W J F F F H F ",
"H F F F F F F F F F F H j z v +.@.{ J J Q Q J Q W , k J Q Q J F H F F F F F F F F F H F F F F F F F F F F W J < < W J F F F F F ",
"F F F F F F F F F F F F B z _ J J W J H H H J Q J 1 k J Q Q F F F F F F F W F F F F F F F F F F F F F F F J W < < W F F F F Q F ",
"F F F F F F F F H F F F 9 z F J J F F F F F G J J u k J Q H F F F F F F F F F F F F F F F F F F F F F F F J W , < J H F F F / m ",
"m F H F F F F F F F F C > z J J F F F F F F F H J u f J H F F F F F F F F F ' F F F F F F F F F F F F F F J J u < J F F F F F ^ ",
"F F Q H F F F F F F F n ; k J J F F F F F F F H J u k J F F F F F F F F F F F M F F F F F F F F F F F F F H J f < J F F F F F F ",
"F F F w F F F F F F H t ; h J F F F F F F F F F J u i J F F F F F F F F F F F F F F F F F F F F F F F F F F J f < J F F F F F F ",
"H F F F F H F F F F F n ; f J F F F F w F F F F J u u F F F F F F F F F F F F F F F F F F F F F F F F F F F J < , J F F H F F F ",
"F H F F F F F F F F M n i j F F F F F n F F F F W u u n C F H F F F H F F F F F F F F F F F F F F F F F F F J < < H F F F F F F ",
"F F F F F F F F F F t < g J H F F F F J F H F F J 9 p t m m M M C F F H F F F F F F F H F F F F F F F F F F F < < F H F F F F F ",
"F F F F F F F F F C n < k J F F F F F F F F F F J u a t t t t n n m m m m M C M C C M n C C C C C C M M m M M < < F F F F F F F ",
"F F F F F F F F F t n < s m H F F F F F F F F F H < h 5 w w w e w w e w e w e t t t m t n n n t t t C t t t t , < F F F F F F F ",
"F F F F F F C M t t n p u n M F F F F F F F F F H < k 5 3 5 5 5 5 5 6 w w q w w w w w w w w w w w w t w w w 5 , , C F F F H F F ",
"C M M n n m e w w q 5 g 7 e t t M C F F F F F F H u b p # O o + % % & & 3 6 5 5 3 5 5 5 5 5 5 3 5 5 5 q 5 5 5 a < m n F F C F C ",
"t e e w w w w 5 5 3 * f 7 3 w w w t t M M F F F H p U b b b z f f p i < ; $ X O o X # . O X O % # % % & % 3 * z < m t t t t t t ",
"q w w q 5 5 3 & & X 1 z p 4 5 5 w w w w w e e t n < U ....O.O...} [ [ ` ` E R R T Y Y Y Y S b b b l k k f k k l 0 5 w w w w w q ",
"6 3 4 * % ; ; < 1 p k z c f ; % 3 5 q q w q w w w < p @...^ J Q Q ~ ~ ~ / ' {  ...O.@.+.@.@.+.@.O.O.O.[ _ ( D b h 4 5 5 5 5 3 5 ",
"< < f c L L X.@.@... .....O.o.l f ; # O 3 5 5 5 5 < f J W J W W W W W W W J J W J J J J W J J J J W Q Q Q ~ ..D z f - - = # ; 9 ",
"....^ J J W W J J J J J J J ~ O.O.) h f u - > * % z u J W W W J J J H H H H H J H J J ..J J J J W J J J J J P O.v c f k z L X.O.",
"W W J W W J J J J J J J H H H J J J / O.} K f f k v p J W W W J H H H H F F F F F F F F H H H H J H J J J J J ..b z O.@.{ J P J ",
"J J J H F F F F F F F F F F F F F H J J J J ..] z l f W Q W F F H H F F F F F F F F F F F F F F F F F F F J J J b z  .J Q W W W ",
"H F F F F F H F F F F F F F F F F F F F F F J J K z i J W H F F F F F F F F F F F F F F F H F F F F F F F F J J l c J P Q J H H ",
"H F F F F F F F F F F F F F F F F F F F F F F F t z i J H H F F F F F F F F F H F F F F F F F F F F F F F F F J f z B Q J H H F ",
"F F F F F F H } F F F F F F H F F F F F F F F F t v k J F F F F F F F F F F F F F F F F F F F F F F F F F F F F V z 0 Q J H F F ",
"F F F F F F F ..F F F F F F F F F F F F F F H M t k p F F F F F F ' F F F F F F F F F F F F F F F F F F F F F n n c , H J H F F ",
"F F F F F F F ~ F H F F F F F F F F F F F F F t t 1 < n F F F F F F F F F F F F F F F F F H F F F F F F H M m t t k 9 J H H F F ",
"F F F F F F F F F F F F F F F F F F F H F F M t e f ; m m m n M C C F F H H F F H H H H F F H F H H F M m M t w w f < J H F F F ",
"F F F H F F F H ^ F F F F F F F F F F F F F t w w h < e w e e t e t e e t t t t t n t n n n n m t t t t m t w q w > i J J F F F "
};
