/* XPM */
static char *a1b2e0ab30e64e0185e69129768b00bc4OYCRFcB8jD9UCr9[] = {
/* columns rows colors chars-per-pixel */
"60 60 242 2 ",
"   c None",
".  c #0D0604",
"X  c #140400",
"o  c #1D0100",
"O  c #1C0A00",
"+  c #140A02",
"@  c #1C1306",
"#  c #260100",
"$  c #2C0100",
"%  c #240A00",
"&  c #2B0C00",
"*  c #320100",
"=  c #350D00",
"-  c #241404",
";  c #2C1300",
":  c #291B08",
">  c #341200",
",  c #3C1300",
"<  c #351902",
"1  c #3C1C02",
"2  c #321E0B",
"3  c #2D2308",
"4  c #3C2302",
"5  c #3C2A01",
"6  c #3A250A",
"7  c #392816",
"8  c #393A0D",
"9  c #431600",
"0  c #451B00",
"q  c #4D1B00",
"w  c #511E01",
"e  c #410E00",
"r  c #442302",
"t  c #4E2401",
"y  c #432A02",
"u  c #4B2B01",
"i  c #45290C",
"p  c #542301",
"a  c #5A2700",
"s  c #552A02",
"d  c #5D2C01",
"f  c #512D0B",
"g  c #5F2F08",
"h  c #4C3301",
"j  c #483704",
"k  c #5D3105",
"l  c #543C02",
"z  c #5A330C",
"x  c #543607",
"c  c #5C3611",
"v  c #5B3A16",
"b  c #4A2F14",
"n  c #602D00",
"m  c #653301",
"M  c #693606",
"N  c #6C3906",
"B  c #643609",
"V  c #6A370A",
"C  c #673809",
"Z  c #6B3A0A",
"A  c #703E0C",
"S  c #713F03",
"D  c #603811",
"F  c #6C3E11",
"G  c #6F2B18",
"H  c #4B3B2B",
"J  c #247911",
"K  c #5B4401",
"L  c #584708",
"P  c #504717",
"I  c #634A03",
"U  c #644708",
"Y  c #75420F",
"T  c #7B4903",
"R  c #6C5401",
"E  c #6A5506",
"W  c #725502",
"Q  c #745B03",
"!  c #7B5C02",
"~  c #76580C",
"^  c #6B4312",
"/  c #724212",
"(  c #7B4815",
")  c #6F5512",
"_  c #4A7714",
"`  c #7A6508",
"'  c #776614",
"]  c #6E7515",
"[  c #57412C",
"{  c #754D26",
"}  c #784F27",
"|  c #7B5229",
" . c #745E24",
".. c #6C4E2A",
"X. c #706D2E",
"o. c #596838",
"O. c #26636F",
"+. c #5A544C",
"@. c #63594D",
"#. c #726957",
"$. c #626263",
"%. c #787470",
"&. c #5F6667",
"*. c #835218",
"=. c #86530D",
"-. c #866A05",
";. c #956A07",
":. c #8C7409",
">. c #947100",
",. c #987807",
"<. c #897715",
"1. c #8F6F13",
"2. c #AC7B04",
"3. c #AC7C0B",
"4. c #A47605",
"5. c #A47A14",
"6. c #B07F06",
"7. c #86582A",
"8. c #8E5E2E",
"9. c #996839",
"0. c #907231",
"q. c #A57432",
"w. c #857C47",
"e. c #AD7945",
"r. c #A87542",
"t. c #A06F40",
"y. c #B07370",
"u. c #DC7B7E",
"i. c #339D18",
"p. c #3FC91F",
"a. c #998009",
"s. c #998518",
"d. c #A48402",
"f. c #AA8201",
"g. c #AD8901",
"h. c #AC860D",
"j. c #B48404",
"k. c #B48903",
"l. c #BB8B04",
"z. c #B2830B",
"x. c #BB8C0B",
"c. c #B78A0C",
"v. c #BB9401",
"b. c #BB930B",
"n. c #A98715",
"m. c #B68A13",
"M. c #BA8E15",
"N. c #B58916",
"B. c #BE9214",
"V. c #BC931C",
"C. c #A89013",
"Z. c #93892D",
"A. c #AA9B23",
"S. c #BA9827",
"D. c #AD8F2B",
"F. c #BEAD36",
"G. c #C39403",
"H. c #CA9B04",
"J. c #C2940B",
"K. c #CC9D0B",
"L. c #C49C05",
"P. c #C29612",
"I. c #C59C1C",
"U. c #C69A17",
"Y. c #CB9A06",
"T. c #CDA202",
"R. c #CDA40C",
"E. c #D3A303",
"W. c #DCAC02",
"Q. c #D7A807",
"!. c #DDB101",
"~. c #D5B20C",
"^. c #CBA21D",
"/. c #CCA614",
"(. c #D3A917",
"). c #D9B914",
"_. c #CEB41E",
"`. c #E0AE02",
"'. c #E3B300",
"]. c #E3B50C",
"[. c #E7BB06",
"{. c #F1BF00",
"}. c #E6BB17",
"|. c #C29C25",
" X c #CBA422",
".X c #C6A626",
"XX c #D4AC25",
"oX c #DBB629",
"OX c #CCAF3A",
"+X c #E4BD25",
"@X c #E5BF32",
"#X c #EBC209",
"$X c #F4C401",
"%X c #FECD02",
"&X c #F9CE0B",
"*X c #F5CB0A",
"=X c #FFD104",
"-X c #FED30B",
";X c #FFD80D",
":X c #EBC511",
">X c #E9C215",
",X c #F3CB14",
"<X c #F0CE1A",
"1X c #FDD513",
"2X c #FFD913",
"3X c #FFDC1A",
"4X c #FCD619",
"5X c #D9C937",
"6X c #DBC82D",
"7X c #EDC929",
"8X c #EEDC36",
"9X c #F4DB33",
"0X c #F0CC2E",
"qX c #FEEB3C",
"wX c #F9E436",
"eX c #968449",
"rX c #959161",
"tX c #D0B04D",
"yX c #D8BD79",
"uX c #FFED40",
"iX c #F4D862",
"pX c #767F86",
"aX c #268EAF",
"sX c #7D8485",
"dX c #858B8B",
"fX c #8B949A",
"gX c #8A928E",
"hX c #9CA499",
"jX c #939EA5",
"kX c #8E99A3",
"lX c #98A2AB",
"zX c #9CA9B4",
"xX c #A3AFB8",
"cX c #A7B3BB",
"vX c #A1ACAD",
"bX c #B99486",
"nX c #CFB7B1",
"mX c #CFC2BD",
"MX c #ABB8C3",
"NX c #B1BFC8",
"BX c #C6D1DA",
"VX c #D2E1EB",
/* pixels */
"                                                              + @ @ @ - - - : : 2 2 2 2 2 6 6 2 i i i i :               ",
"              2 f z c c c c c c c c D D D D D D D D 5 j k.g.l j D F F F F ^ F / F / / F / Z F F F V F F B 0             ",
"          - z Z A A A A A Y Y Y Y Y / Y Y Y Y Y Y f >.$X=X-X,XC.i Z Y Y / Y Y Y Y Y A Y Y Y Y A A A Y A / A 2           ",
"        + z Y Y Y Y / Y / Y Y Y Y Y Y Y Y Y Y Y z ` ).3X3X2X;X#Xv.l A Y / Y Y Y Y Y Y Y Y Y Y Y A / ( A ( D L -.        ",
"      E a.i B B B B B B B B V V Z Z Z M Z Z Z A r -.,X-X%X%X%X&XT.h V A A A A A A A A A Z Z Z Z N B C C g 0 C.>XL       ",
"    j !.:XL p n n m m m m m m n m m m m n m m m a h [.-X1X;X1X-XQ r m m m m m m n m n m m n m m m k m k 4 s.:X-Xa.      ",
"    b.-X-X).j a n m m m m m m m m m m m m m m m d ` =X=X%X%X%X%Xf.s m m m m m m m m m m m m m m m m d 0 L *X=X;X~.      ",
"  ` &X%X%X-X<.j t m m m m m m m m m m m m m m m u v.=X%X%X=X%X%XW.s m m m m m m m m N m m m m m m m 5 <./.1X-X%X$XR     ",
"8 ~.;X1X4X1X1X).i B A Z Z Z A A A Z Z Z Z V V V h ).,X,X,X,X,X,X}.K B V V V V V V V V V V V V V V z L <X4X1X,X4X4X,.    ",
"K R.].].].[.[.].L q p p p p w w w w w w w w w w < 2.`.W.W.W.W.`.v.1 0 q q w q w w q w q q w w w q , ! `.`.`.!.`.Q.R     ",
"  -.W.E.E.k.j.j.W O = & & % % & & % & % % & % % X h >.>.>.>.;.>.E o % % % % % % % % % % % % % % % O l -.>.,.E.W.f.      ",
"    f.`.G.K 5 % % # # # # X o o # o o o o o o # o o o o o o o o o o o o o o o o o o o o o o o # # # # # K =.W.E.I       ",
"    l v.E.! ; * * $ $ $ # # o # # # # # # # # # # # # # # # # # # # # # # # # # # # # # # o # $ * $ * $ 5 k.E.,.        ",
"      5 h 4 o * * * * $ # # # # # # # # # $ $ # # $ # $ # # $ # # $ $ # $ # $ # $ $ $ # # o # # $ * * * + u h 3         ",
"        % 0 = # * * * $ $ # o # $ # $ # $ # $ # $ # $ # # $ # # $ # $ # # # # $ # $ # # # o # * * * * # = 0 O           ",
"          , 0 % * * * $ $ $ o # # $ # # # # # $ # # # # # # $ # # # # # $ # $ # # # # $ # o $ $ $ * * % 0 >             ",
"          O 9 , # * * * $ $ o $ $ $ $ $ $ $ $ # $ $ $ $ $ # $ $ $ $ # $ $ $ $ $ # $ $ $ # # # $ * * # = 0 @             ",
"            & q & $ * * $ $ # $ * $ * $ $ * $ * $ * $ * $ * $ * $ * * $ * $ $ * * $ * $ # o * * * * % 0 ;               ",
"              > 0 # * * * $ o $ * $ $ $ $ $ $ * $ $ * $ $ * $ * * $ $ * $ * $ $ $ $ $ $ # # * * * # , 9                 ",
"              O 9 , # * * * o $ $ $ * $ * $ $ $ $ * $ $ $ $ $ # $ $ $ $ $ $ $ $ * * $ * # # * * * % 0 %                 ",
"                % 0 & $ * * # $ * $ $ * $ $ * $ $ $ * $ * * ^ N , e e , 0 9 m N 5.5.0 $ $ # * * # , ,                   ",
"                  > 9 % * * o * * * * * e e n m S T =.=.T ;.5.OX|.3.2.6.J.V.J.x.(.+Xs.8 & o * * % 0 %                   ",
"                  X 9 = $ $ $ * q N T ;.c.3.c.I.x.^.U.P.K.U.XXtX|.2.P.K.J.U.z.|.P.,._ i.] z * % , >                     ",
"                    % 0 & $ = 1.I.J.R.P.M.^.4.S.M.m.j.K.].x.3.2.G.J.M.j.J.M.c.4.V.` J p.] ;.= & 9 O                     ",
"                      > , b S.I.|.I.3.c.l.x.6.3.z.6.H.E.J.c.j.G.l.J.x.G.K.P.j.j.c.1.] _ ,.G.h , &                       ",
"                      X t S.iXq.1.S.P.x.J.Y.P.J.l.x.oXx.z.I.J.K. XN.P.l.(.I.I.x.J.B.(.c.Q.K.4.Y 4                       ",
"                        =.J.tXnXbXtXI.^.l.Y.(.(.(.B.h.6. XB.K.I.3.2.G.l. XN.V.U.E.c.2.R.0XS.F.6XB.                      ",
"                    6 ^ I.7XyXmXu.( XX6.2.l.l.2.x.U.6.l.K.j.j.P.U.l.G.6.5.1.M.K.].7X7X:XS.vXxXD.7XU.5                   ",
"                : v n.@X(.iXS.G y.*.K.(.E.V. Xx.3.M.J.b.b.z.|.3.|.x.oX(.s.O.o.(.0X}.0X0XD.mXBXeX`.K.D.)                 ",
"            . 7 #.eX XR.].XXOX|.q.OX(.@XK.c.z.U.M.M.P.V.P.3.3.j.3.j.}.}.D.aXO.1.U.J.U.I.|.S.tXn.].].(.h.x - @           ",
"      H Z.A.X.sXMXzX0.K.K.@XN.0.<.S.x.}.}.Q.Q.G.(.(.U.oXK.J.|. XI.P.+X<X@XX.Z.XXJ.`.Q.K.x.2.B.6.@X7XQ.a.j L A.F.X.      ",
"  P Z.5XwX5XhXxXsX$.#.G.G.j.w.MXkXy.6.+XoXoX}.H.`.].Q.E.Q.l.P.M.4.c.+X~.Q.K.6.6.6.G.G.`.H.G.J.k.l.4.K ' ` ` s.8XwX5XX.  ",
"E 6XuXqXqXrXxXdXZ.3 b ^ L ..xXjX$.@.E U U ) ~ -.-.-.-.Q -.' ` ` E Q Q ! ,.,.! W ~ W ^ L U ) ) ) U c 2 <.8XuXqXqXqXqXwX' ",
"` =X;X3X7XgXNXZ.L | r.q.9.%.xX%.7.8.7.7.7.| | } { { P 6X9X9XwXwXA.v { } } | } | 7.7.7.8.8.9.9.9.t.r.t.v _.4X2X2X2X1X=X-.",
"Q &X-X=X).hXjX' u ( 7.7.8.w.MX#.9.e.q.e.r.e.e.e.e.0.0.qXuXuXuXqX8X .r.e.e.e.e.e.r.r.r.q.q.9.9.8.7.*.*.f W E.R.#X=X%X%X` ",
"I $X-X;X.XjXfX7 f N m N D dXMXH N A / Y / ( ( ( ( c g.=X%X=X-X-X-X! / ( ( ( Y Y A A A Z M N N m N N m B r 6 5 W.=X;X*XR ",
"L :X&Xd. .NXfXb N Z V N [ kXkXH M N N N N N N N Z t g.%X%X$X$X=X&XW d N N N N N N N N N N N N N N N Z N N B r ! L.#X$XE ",
"L !.$Xl 7 sXlXH d n m B @.BXdXg N M N N N Z N N A u g.=XE.U ;.,X4XW B N Z N N N N N N M N N N M m B B m k g t < 4 !.$XI ",
"3 !.!.h z %.MX&.f k d b dXlX+.w B B m B B M N N N t C.2X,.. 7 W.%XW d V M M B B m k B k g k d g k k k k k m m d h '.$XK ",
"  K K 1 B [ MXlXdX+.@.fXzXjXb n m M M B B N V N Z s C.;Xv.3 Q $X%XR g B B B B m B C B m B m B m m m m m m m m m 4 R g.5 ",
"  - p m m z %.kXNXMXlXVXfXH u B m m m m m m m m m t d.=XH.: ! $X%XR m m m m m m m m m m m m m m m m m m m m m m d r ;   ",
"  - s d m n x [ $.dXpX$.H t m n m m m m m m m m s 4 d.=Xv.P 1.[.%XW r s m m m m m m m m m m m m m m m m m m m m m d <   ",
"  % s d a s s a p f i t d m m m m m m n m m m p >.L.'.%X`.`.W.{.%X[.R.K n m m m m m m m m m m m m d d d d s s s s s <   ",
"  + s n d m n n m B d B m M M M M M M m M m m p !.=X%X%X%X%X=X-X2X2X2XQ p m m m m m d d k s s d a x s d d k k n n n ;   ",
"    s m n d n n n n n n n n m B n M M M M V m 4 >.!.%X%X-X1X;X-X-X#X,.y a B d d B d d n d m d n n n n n n n n n n d ;   ",
"    t n n n n n n n n n d n d n n d n d d n n p < K ,X;X-X%X%X%X%XW.< t n n n n d n n n d n n d n d n n n n n n n d ;   ",
"    r d n n n n n n n n n n n n n n n n n n n n p 5 v.T.$X%X%X$XW.k.r d n d n n n n n n n n n n n n d d n d d d a p @   ",
"    1 p u p p p a a d d n n n n n n n n n n d m d 0 4 K %X%X%XH.y 4 t n n n n n n n n n n n n d d d a s s p t t f f O   ",
"    , a a s p t t q t t p p s s s a d d d d d n n n a 1 f.'.W.R 1 a n n d n n n n n d d d a s s f p s s a a a a a p O   ",
"    ; 1 p a a a a a a a s p s p p p t t t t t p p p f 0 < y 4 < s d d d n n B n n d g a g a a a a a a a a a a a p 1 +   ",
"    ` :.r p a a a a a a a a a a a a a a a a a s a p a a p q p a d a d a a n a a a a a d p a a a a a a a a a a p 4 L 3   ",
"    T.-XL w d a a a a a a a a a a a a a a a a a a a a a a a a a a a a a a a p a a a a a a a a a a a a a a a a 1 C.#XE   ",
"    v.&XL < 0 s a a a a a a a a a a a n a a a a a a a a a a a a a a a a a a a a a a a a a a a a a s p p p t , 6 :X$XI   ",
"    a.%X}._.j 0 p f p f s s a a a a a w a a a a a p a a a a a p a a a a a a a p a a p p p p t p p t p s f 1 L ' !.#XK   ",
"    :.;X1X;X<., p p p a p a a a g p g n g n d d a a a g a a a a p a p a p p p p p f f p f s a p p p a p 0 j :X%X;X:XL   ",
"    ` %X%X%Xs.j 9 w w w w w w w w w p p w p p a g a p p p a p a p p w f p f a p a w w a w w p w w p w , 6 L :X1X2X!.j   ",
"    I $X=X-X*X:X:., p p p p p a w w w w w p w w p w w w w a w w p w p w w p w w w w w a w p p w p w , ' ).:X2X;X=X!.    ",
"      -.b.~.#X$X).5 0 q w w w w w a w a w w a w w a w a w w w a w p w a p p p p a w p w p p w w q q > C.-X#XE.v.d.`     ",
"            j R Q @ X O % & = > , 9 q 9 q q q q w q w w w w w q w w w w q q 0 9 9 , , , = & % % O X   j L j             ",
"                                  . . o X O O o % % % & % % % % % % % # o O o X X X                                     "
};
