/* XPM */
static char *result[] = {
/* columns rows colors chars-per-pixel */
"64 64 240 2 ",
"   c #0A0209",
".  c #17040A",
"X  c #280A0E",
"o  c #310D0F",
"O  c #371313",
"+  c #321110",
"@  c #471A15",
"#  c #531E15",
"$  c #4B231B",
"%  c #58271A",
"&  c #52341D",
"*  c #632C1B",
"=  c #692918",
"-  c #742E19",
";  c #772E18",
":  c #79351D",
">  c #693018",
",  c #5B2D21",
"<  c #6A3724",
"1  c #7B3A24",
"2  c #764329",
"3  c #794A35",
"4  c #664630",
"5  c #85361B",
"6  c #8B3A1C",
"7  c #86381D",
"8  c #923E1D",
"9  c #853D24",
"0  c #8B3E25",
"q  c #853E28",
"w  c #94411D",
"e  c #9B441E",
"r  c #8D421C",
"t  c #A34A1F",
"y  c #A64A1E",
"u  c #A7531E",
"i  c #8C4224",
"p  c #8D4329",
"a  c #8C4A2C",
"s  c #854729",
"d  c #934322",
"f  c #9C4C23",
"g  c #934429",
"h  c #944B2D",
"j  c #9C4B2B",
"k  c #984923",
"l  c #9B532C",
"z  c #8A4D32",
"x  c #875435",
"c  c #945333",
"v  c #9C5533",
"b  c #9C5D3B",
"n  c #975A37",
"m  c #90542D",
"M  c #A34B21",
"N  c #AA4E21",
"B  c #A14E2D",
"V  c #AC5322",
"C  c #A7572B",
"Z  c #B35A23",
"A  c #BA5D24",
"S  c #B25827",
"D  c #A35C35",
"F  c #A35C39",
"G  c #A85934",
"H  c #B35C36",
"J  c #9B623B",
"K  c #9A663C",
"L  c #B8642B",
"P  c #A3633B",
"I  c #AB643B",
"U  c #AC6B3E",
"Y  c #A5653A",
"T  c #B36A3C",
"R  c #B76838",
"E  c #BA743D",
"W  c #AB612E",
"Q  c #C05E21",
"!  c #CD6B25",
"~  c #C46626",
"^  c #D36E25",
"/  c #CB712D",
"(  c #D8772B",
")  c #C46C32",
"_  c #C77637",
"`  c #DA7D32",
"'  c #E17726",
"]  c #E37927",
"[  c #E37C2A",
"{  c #E17728",
"}  c #9C6644",
"|  c #846742",
" . c #A46B44",
".. c #AB6C44",
"X. c #A76946",
"o. c #B46D43",
"O. c #BB6E43",
"+. c #AD734D",
"@. c #A97546",
"#. c #B57344",
"$. c #BB7444",
"%. c #B4754B",
"&. c #BC754A",
"*. c #B57A4C",
"=. c #BC7B4B",
"-. c #BB7945",
";. c #AD7754",
":. c #B37B54",
">. c #BB7D53",
",. c #B47956",
"<. c #C37A45",
"1. c #C47C4B",
"2. c #C67A48",
"3. c #C27C51",
"4. c #CA7E51",
"5. c #D17E43",
"6. c #BF833D",
"7. c #D8863A",
"8. c #CB813E",
"9. c #E6822C",
"0. c #EC8C34",
"q. c #E38736",
"w. c #EB963C",
"e. c #F2973A",
"r. c #F28F33",
"t. c #FCA33E",
"y. c #BB854A",
"u. c #BC8354",
"i. c #BC845A",
"p. c #BC895D",
"a. c #B78459",
"s. c #AE8252",
"d. c #BB8B65",
"f. c #BD9372",
"g. c #C4824D",
"h. c #CB844D",
"j. c #C78747",
"k. c #D78D45",
"l. c #D9944B",
"z. c #C48354",
"x. c #CB8453",
"c. c #CD8B54",
"v. c #C28B5B",
"b. c #CD8C5A",
"n. c #C58658",
"m. c #D28D54",
"M. c #D28C5A",
"N. c #D18456",
"B. c #CA945A",
"V. c #D3935D",
"C. c #D69957",
"Z. c #CA914A",
"A. c #E99945",
"S. c #E99C4E",
"D. c #DCA35B",
"F. c #CDA15F",
"G. c #EEA24B",
"H. c #F4A244",
"J. c #F7A94A",
"K. c #FDB24D",
"L. c #E9A758",
"P. c #F5AD54",
"I. c #FBB453",
"U. c #FEBA54",
"Y. c #FBBC5C",
"T. c #F6B45A",
"R. c #EFB15B",
"E. c #C58D62",
"W. c #CD9463",
"Q. c #CD9B64",
"!. c #C59265",
"~. c #D39462",
"^. c #D49B65",
"/. c #D59C6B",
"(. c #D99C6C",
"). c #D89A64",
"_. c #C69A78",
"`. c #DA9F70",
"'. c #D8A568",
"]. c #DBA272",
"[. c #DBAC72",
"{. c #DAA97A",
"}. c #DDB178",
"|. c #CCA477",
" X c #E4AC69",
".X c #E8B667",
"XX c #F4BB67",
"oX c #E1AD79",
"OX c #E3B47A",
"+X c #E7B977",
"@X c #F1BB72",
"#X c #FEC25E",
"$X c #FDC463",
"%X c #FDCA6B",
"&X c #FBC569",
"*X c #FCCD74",
"=X c #F6C779",
"-X c #FCD47C",
";X c #FDD275",
":X c #EAC276",
">X c #D7AB82",
",X c #DBB889",
"<X c #CDB090",
"1X c #E2AE85",
"2X c #E4BA86",
"3X c #E6BC96",
"4X c #D0BBA7",
"5X c #C59F81",
"6X c #DEC59C",
"7X c #E9C58C",
"8X c #F4CB84",
"9X c #FEDA83",
"0X c #FDDB8A",
"qX c #FAD486",
"wX c #ECCB94",
"eX c #E7C698",
"rX c #F6D696",
"tX c #EFD196",
"yX c #FFE28C",
"uX c #FEE494",
"iX c #FDE599",
"pX c #FFEB9A",
"aX c #FFE995",
"sX c #FFF19F",
"dX c #D6C3A7",
"fX c #DACCB9",
"gX c #E7CAA5",
"hX c #F5DBA9",
"jX c #E8D6BB",
"kX c #F3DAB6",
"lX c #ECD1A1",
"zX c #FDE9A7",
"xX c #FEF2AC",
"cX c #FFF2A4",
"vX c #FEF4B6",
"bX c #F7E4BF",
"nX c #DDD3C1",
"mX c #F9ECCA",
"MX c #F2DFC1",
"NX c None",
/* pixels */
"NXNXNXNXNXNXNXNXNXNXNXNXNXNXNXNXNXNXNXNXNXNXNXNXNXNXNXNXNXNXNXNXNXNXNXNXNXNXNXNXNXNXNXNXNXNXNXNXNXNXNXNXNXNXNXNXNXNXNXNXNXNXNXNX",
"NXNXNXNXNXNXNXNXNXNXNXNXNXNXNXNXNXNXNXNXNXNXNXNXNXNXNXNXNXNXNXNXNXNXNXNXNXNXNXNXNXNXNXNXNXNXNXNXNXNXNXNXNXNXNXNXNXNXNXNXNXNXNXNX",
"NXNXNXNXNXNXNXNXNXNXNXNXNXNXNXNXNXNXNXNXNXNXNXNXNXNXNXNXNXNXNXNXNXNXNXNXNXNXNXNXNXNXNXNXNXNXNXNXNXNXNXNXNXNXNXNXNXNXNXNXNXNXNXNX",
"NXNXNXNXNXNXNXNXNXNXNXNXNXNXNXNXNXNXNXNXNXNXNXNXNXNXNXNXNXNXNXNXNXNXNXNXNXNXNXNXNXNXNXNXNXNXNXNXNXNXNXNXNXNXNXNXNXNXNXNXNXNXNXNX",
"NXNXNXNXNXNXNXNXNXNXNXNXNXNXNXNXNXNXNXNXNXNXNXNXNXNXNXNXNXNXNXNXNXNXNXNXNXNXNXNXNXNXNXNXNXNXNXNXNXNXNXNXNXNXNXNXNXNXNXNXNXNXNXNX",
"NXNXNXNXNXNXNXNXNXNXNXNXNXNXNXNXNXNXNXNXNXNXNXNXNXNXNXNXNXNXNXNXNXNXNXNXNXNXNXNXNXNXNXNXNXNXNXNXNXNXNXNXNXNXNXNXNXNXNXNXNXNXNXNX",
"NXNXNXNXNXNXNXNXNXNXNXNXNXNXNXNXNXNXNXNXNXNXNXNXNXNXNXNXNXNXNXNXNXNXNXNXNXNXNXNXNXNXNXNXNXNXNXNXNXNXNXNXNXNXNXNXNXNXNXNXNXNXNXNX",
"NXNXNXNXNXNXNXNXNXNXNXNXNXNXNXNXNXNXNXNXNXNXNXNXNXNXNXNXNXNXNXfXfX4XNXNXNXNXNXNXNXNXNXNXNXNXNXNXNXNXNXNXNXNXNXNXNXNXNXNXNXNXNXNX",
"NXNXNXNXNXNXNXNXNXNXNXNXNXNXNXNXNXNXNXNXNXNXNXNXNXNXnXnX4X<X5Xf.f.f.5X<XdXdX4XNXNXNXNXNXNXNXNXNXNXNXNXNXNXNXNXNXNXNXNXNXNXNXNXNX",
"NXNXNXNXNXNXNXNXNXNXNXNXNXNXNXNXNXNXNXNXNXNXNXfXnX4X;.o.>.n.3.&.3.3.&.>.F b !.eXdXNXNXNXNXNXNXNXNXNXNXNXNXNXNXNXNXNXNXNXNXNXNXNX",
"NXNXNXNXNXNXNXNXNXNXNXNXNXNXNXNXNXNXNXNXNXNXnX5X;.3.N.M.3.N.N.N.&.2.x.2.O.o.%.I :.>X,XNXNXNXNXNXNXNXNXNXNXNXNXNXNXNXNXNXNXNXNXNX",
"NXNXNXNXNXNXNXNXNXNXNXNXNXNXNXNXNXNXNXNXnX4X>.4.2.4.M.1XgX>XMXMX`.kXjXW.{.n.=.#.o.v :.7XNXNXNXNXNXNXNXNXNXNXNXNXNXNXNXNXNXNXNXNX",
"NXNXNXNXNXNXNXNXNXNXNXNXNXNXNXNXNXNXNXnX5X4.4.~.(.3X3X3XeX/.`.`.~././.z.2XlXv.V.#...g X.[.NXNXNXNXNXNXNXNXNXNXNXNXNXNXNXNXNXNXNX",
"NXNXNXNXNXNXNXNXNXNX3X3XwXwXtXrXlXgXjXE.N.4.N.1X1X3X`.`.`.(.~.4.4.~.~.M.b.x.b.OX}.D P &.v Q.Q._ _ R L L R R NXNXNXNXNXNXNXNXNXNX",
"NXNXNXNXNXNXNXNXeXeX@XS.S.` k.H.P.jX~.4.~.N.MXgX(.oX`.`.`.M.).3X3.N.~.E.b.x.h.1.1.OXv.o.I h B.E f 6 d f f d C S n NXNXNXNXNXNXNX",
"NXNXNXNXNXNXtXwXl./ H.@X@XrX8X8XkXE.M.).1X3X].`.`.`.`.`.`.V.].3Xn.M.W.N.x.x.g.1.-.<.'.&.U ..c '.8./ L ) V V M 8 k L M NXNXNXNXNX",
"NXNXNXNXNXlX+Xq.e.=XqXhXqX0XqXhX,XO.4.oXmX1X`.`.`.`.].`.,X/. X~.(.W.'.b.x.h.1.<.<.$.T ).'.I h J D./ A ~ A / A V 5 6 A L NXNXNXNX",
"NXNXNXNXlXL.9.L.rX*X&X$XY.%X=XgX&.~.4.3X(.`.(.1X`.{.].`.'.H M.^.M.G x.x.z.1.1.<._ E -.E C.D c v @.<.M t f 8 M S S N 8 S V NXNXNX",
"NXNXNXNXL.9.@X*XXXU.#X$XU.qXhXd.~.4.kX1X(.lX2XlXtX2XkX]./.H m.b.c.B 1.3.-.1.<.$.$.E  XE W oX-.h m C.S Z 8 8 6 6 Z A M 8 L NXNXNX",
"NXNX8X+X/ S.=XJ.K.U.#X%XL.@XgX3.4.(.1X(.(.].(.`.].(.^.4.c.H x.E.B.B g.oXF l R $.E O.m.T R -. Xa a U j.A e 8 6 7 7 M ~ 6 8 Z NXNX",
"NXNX=XA.P.tXH.*XqXqX0X%X) 1X_.4.M.MXV.).).).).1X/.c.g.$.H G T >.I B G %.n.3.v I T E m.<.T T Y n v c D.V e r 7 5 t y y A 5 e NXNX",
"NXk.L.7.XXH.r.t.K.U.K.r.) gX,.4.(.eX~.).).).).(.H H H G B B B B j j j g g g T I G T C.T R R E D.U c #._ Z > ; 5 t y 5 A 6 6 V NX",
"NX.Xq.0.=X9.9.0.H.) H H G <XO.4.].h.~.V.~.~.M.oXE.n.3.G B B T 3.3.,...g g 0 i I v T x.O.I I I D.#.n n -.= = ; ; e y 5 8 A e V 7 ",
"NXXXq.G.H.] [ [ H.J.S.G ,.E.4.~.kXM.m.M.V.V.M.N.>.n./.H B B 2.b.W.n.T O.g 0 0 g I B D.T R I I -.=.P a Z.@ @ # ; t t 6 6 A e t r ",
"NXXX[ @X0.] ] { { [ XXS _.;.3.~.7Xm.C.m.c.c.M.n.<./.).G B j <.(.OXW.W.F v 0 0 0 =.y.$.I T T P -.D.z : C.= @ @ w y t 8 6 Q V 8 y ",
"NXL.V P.] ' ' { ( ` Y.H >XF H E.].m.x.m.V.N.h.-.o.(.).F B j <.n.'.OX'.o.h 0 0 g -. XB E T I j P y.: > Z.5 @ % ~ u 8 8 ; y 5 = y ",
"T.L.` &X] ] [ ] { H.U.L ,XG R 1XoXh.m.m.4.h.1.O.O.o.~.G k j <.[.b.>.i.+.0 0 0 n.J Q.v T T l v Y P P J l.> $ ~ u N 8 5 5 8 y y Q ",
"T.L.` Y.] ] ] [ G.rX*X) ,XX.1./.V.h.m.m.1.1.O.&.n.E./.G j j G u.:.+.c 0 0 0 +.P v F.v R I D T T g.h.Y l.: @ - e e 6 5 8 y ^ N Q ",
"NXT.0.&X[ { ( e.$XhXqX) ,XB <.1X'.g.m.m.O.O.3.W.hXwX/.G h k g g g 0 p 0 0 0 9 v =.B.D G D X. . .p.p.J D.s o o = ; 6 / ( A ! N Z ",
"NXXX( J.r.{ ^ e.XXzXqX) >X+.n.{.OX1.h.1.O.1.E.W.tX2X/.F j g I i.>.>.*.#.0 q 9 0 D W v D %.v.p.+.B.B.P D.f @ X @ M ! H.J.y y Q Q ",
"NX8Xw.P.G.[ ] ] e.0X9X/ _.,.3.4.M.x.1._ o.E.E.W.eX,X'.F g g =.g.~.~.n.u.$.0 9 9 0 U *.i.'.9X-X@.*.*.b L.k @ X = N ! Q Q e 8 ! ! ",
"NX-XG.[ Y.9.[ r.K.e.*X_ ,.d.O.3.7Xh.h.2.O.&.3.E.wX2XW.D g g $.>.+X7XOXOX#.v 9 9 9 $.*.B.'.9X9XE U Y D D.- X o Z ^ ~ 8 y 8 6 ^ NX",
"NXNXXX( P.H.9.r.U.t.) M F 5X%.x.wX1.2.5.<.&.o.n.wX2XB.F g g %.*.u.v.F F ..c 9 q p %.b +.>.C.C...Y Y U s.X % u ^ ! 5 t q.e u A NX",
"NXNX8XG.0.&Xe.r.#XI.R..Xl.,X%.%.z.x.j.1.1.2.'.#.y.V.(.F g p $.b.:. .%.+.,.q 9 q v *.+.;.+..... ...F j.T - d A ! ( A ( Q e ! NXNX",
"NXNXP.&X0.q.I.H.$Xt.K.%XY.].a.X.o.wX<.2.<.<.).h.b.E.!.h 0 0 F p.:.+.;.} q q q g v.:.:.+.z F *.U a a D.d M ! ( [ ( ^ ( 5 A Z NXNX",
"NXNXNXY.XX( P.$XJ.t.J.U.U.5.>XI 3.oX<.2.1.<.+Xg.'.p g 0 p q q 0 0 9 9 q q q b !.:.i.%.z s ;.+XP J  .B.: 5 e y Z ^ ( : e u NXNXNX",
"NXNXNXNXS.T.[ 0.&XI.I.U.U.t.8X+.>...3Xh.<.<. Xg.'.I X.b b 0 p X.b q c X.+.;.X.,.a.i.E. .X.*.u. .J B.2 % = 5 8 ! e = e Q NXNXNXNX",
"NXNXNXNXNXA.Y.9.^ U.-X$X$X#X=X|.I o.~.[.<.-.V.g.c.p.].[.'.m b ,.=.1 *.Q.X.;.E.>.v.p.v.a.p.8Xn m K s.X # > y y ; = 8 A NXNXNXNXNX",
"NXNXNXNXNXNXNXY.A.[ ( A.R.*X*X8Xd.o.I >.'.$.D.c.$.$.$.V.'.k c u.>.1 %.:.d.Q.{.W.{.}.d.;.B.@.J c '.$ $ % = @ o @ y y NXNXNXNXNXNX",
"NXNXNXNXNXNXNXNXA.Y.P./ A r.r.0.2XX.F -.,XW.#.$.#.E *.*.B.p l g.,.1 *.a.:.,.:.,.s.:.p.8X*.s m '.4         o ; 8 NXNXNXNXNXNXNXNX",
"NXNXNXNXNXNXNXNXNXNXNXP.Y.Y.Y.Y.&X,X} U ..*.}.-.E #.#.#.u.<.E @.#.E c.;.;.s.:.,.,.p.a.} c a p.|       . o NXNXNXNXNXNXNXNXNXNXNX",
"NXNXNXNXNXNXNXNXNXNXNXNXNXNXNXNXNXNX7XJ D U a.'.*.#.@.#.*.Y *.+X;.J +.;.;.;.;.} [.F.x n 2 B..XNXNXNXNXNXNXNXNXNXNXNXNXNXNXNXNXNX",
"NXNXNXNXNXNXNXNXNXNXNXNXNXNXNXNXNXNXNX,X} P c z F.+XU +.@.;.*.p.s.@.;.;.K @.[.Z.n m K 3 B.:XNXNXNXNXNXNXNXNXNXNXNXNXNXNXNXNXNXNX",
"NXNXNXNXNXNXNXNXNXNXNXNXNXNXNXNXNXNXNXNX}.a.1 D P J K &X'.+.B.+.,.f. ..X:XK K x 2 x z .X@.NXNXNXNXNXNXNXNXNXNXNXNXNXNXNXNXNXNXNX",
"NXNXNXNXNXNXNXNXNXNXNXNXNXNXNXNXNXi : i : @.F. .4 m m < s J y.K @.B.K K x W 2 3 3 y.y.& X . . NXNXNXNXNXNXNXNXNXNXNXNXNXNXNXNXNX",
"NXNXNXNXNXNXNXNXNXNXNXNXNXNXNXw s C S 0 < % & @..Xy.3 & 2 x K J n n x 3 , 4 K C.Z.x $ @ @ @ O O O NXNXNXNXNXNXNXNXNXNXNXNXNXNXNX",
"NXNXNXNXNXNXNXNXNXNXNXNXNXNXr & l W = * , , % $ $ K D.Z.6.Y K K U @.@.s.Z.8.m & @ @ O @ $ < K n 2 3 s NXNXNXNXNXNXNXNXNXNXNXNXNX",
"NXNXNXNXNXNXNXNXNXNXNXNXNXu 4 x W > % % % x a.<X XS.}.+ X & x y.[.F.F.s.&   . + % > < J *.V.'..XD.2Xf.NXNXNXNXNXNXNXNXNXNXNXNXNX",
"NXNXNXNXNXNXNXNXNXNXNXNXNXu < 3 W > > > & m p.}.'.@XlX, $ $ x p.:X7Xy.E s @ + O @ * 1 n T $.*.C.B.Q.d.: NXNXNXNXNXNXNXNXNXNXNXNX",
"NXNXNXNXNXNXNXNXNXNXNXNXNX) 1 s : C r : i C q.E Z.s.s.3 2 % < ;. .3 3 x 2 < < 1 9 1 1 : 1 2 a c } 3 s f NXNXNXNXNXNXNXNXNXNXNXNX",
"NXNXNXNXNXNXNXNXNXNXNXNXNXS.8.f a : L L W E t.7.XXqXzXrXD.% x tX|.$ a k.j.W C C B i l 9 7 l k U J i L NXNXNXNXNXNXNXNXNXNXNXNXNX",
"NXNXNXNXNXNXNXNXNXNXNXNXNXL.&XR.w.L C l L 7.w.G.$XyXvXmXmX7X7X8XC.'.=Xw.7.L C C k S V f l 7 f f ) H.G.NXNXNXNXNXNXNXNXNXNXNXNXNX",
"NXNXNXNXNXNXNXNXNXNXNXNXNXC.*X=X*X%XY.G.7.v 7.j.L.l.:XtX0XzXzXrXrX-XT.H.q.7./ / l i f V S / A.P.U.I.H.NXNXNXNXNXNXNXNXNXNXNXNXNX",
"NXNXNXNXNXNXNXNXNXNXNXNXNXNX'.-X*X-X;X9XyXyXrX8XrX+Xd.d.=X=X&X:XR.L.k.8.E 8.7.A.S.L..X&X%X#X#XU.I.P.NXNXNXNXNXNXNXNXNXNXNXNXNXNX",
"NXNXNXNXNXNXNXNXNXNXNXNXNXNXNXD.*X-X-X9XyXpXcXzXxXvXvXvXmXvXvXxXzXcXsXaXuXuXiXuXuX0X9X-X;X$X#XU.K.NXNXNXNXNXNXNXNXNXNXNXNXNXNXNX",
"NXNXNXNXNXNXNXNXNXNXNXNXNXNXNXNXNX.X%X9XyXpXzXcXxXxXvXxXxXxXcXcXcXsXpXpXpXiXiXiXuX0X0X-X*X$XY.NXNXNXNXNXNXNXNXNXNXNXNXNXNXNXNXNX",
"NXNXNXNXNXNXNXNXNXNXNXNXNXNXNXNXNXNXNXNXNX9XiXzXzXxXxXxXxXcXcXsXsXpXpXpXaXaXiXiX0X0XqX&XNXNXNXNXNXNXNXNXNXNXNXNXNXNXNXNXNXNXNXNX",
"NXNXNXNXNXNXNXNXNXNXNXNXNXNXNXNXNXNXNXNXNXNXNXNXNXNXpXpXpXaXaXaXaXyXyXyX0X0XNXNXNXNXNXNXNXNXNXNXNXNXNXNXNXNXNXNXNXNXNXNXNXNXNXNX",
"NXNXNXNXNXNXNXNXNXNXNXNXNXNXNXNXNXNXNXNXNXNXNXNXNXNXNXNXNXNXNXNXNXNXNXNXNXNXNXNXNXNXNXNXNXNXNXNXNXNXNXNXNXNXNXNXNXNXNXNXNXNXNXNX",
"NXNXNXNXNXNXNXNXNXNXNXNXNXNXNXNXNXNXNXNXNXNXNXNXNXNXNXNXNXNXNXNXNXNXNXNXNXNXNXNXNXNXNXNXNXNXNXNXNXNXNXNXNXNXNXNXNXNXNXNXNXNXNXNX",
"NXNXNXNXNXNXNXNXNXNXNXNXNXNXNXNXNXNXNXNXNXNXNXNXNXNXNXNXNXNXNXNXNXNXNXNXNXNXNXNXNXNXNXNXNXNXNXNXNXNXNXNXNXNXNXNXNXNXNXNXNXNXNXNX",
"NXNXNXNXNXNXNXNXNXNXNXNXNXNXNXNXNXNXNXNXNXNXNXNXNXNXNXNXNXNXNXNXNXNXNXNXNXNXNXNXNXNXNXNXNXNXNXNXNXNXNXNXNXNXNXNXNXNXNXNXNXNXNXNX",
"NXNXNXNXNXNXNXNXNXNXNXNXNXNXNXNXNXNXNXNXNXNXNXNXNXNXNXNXNXNXNXNXNXNXNXNXNXNXNXNXNXNXNXNXNXNXNXNXNXNXNXNXNXNXNXNXNXNXNXNXNXNXNXNX",
"NXNXNXNXNXNXNXNXNXNXNXNXNXNXNXNXNXNXNXNXNXNXNXNXNXNXNXNXNXNXNXNXNXNXNXNXNXNXNXNXNXNXNXNXNXNXNXNXNXNXNXNXNXNXNXNXNXNXNXNXNXNXNXNX"
};
